<?xml version="1.0" encoding="UTF-8"?>
<svg width="24px" height="24px" viewBox="0 0 24 24" version="1.1" xmlns="http://www.w3.org/2000/svg" xmlns:xlink="http://www.w3.org/1999/xlink">
    <!-- Generator: Sketch 50.2 (55047) - http://www.bohemiancoding.com/sketch -->
    <title>Fill 1</title>
    <desc>Created with Sketch.</desc>
    <defs></defs>
    <g id="Channel-Audit" stroke="none" stroke-width="1" fill="none" fill-rule="evenodd">
        <g id="vidIQ-Achievements-v3" transform="translate(-210.000000, -339.000000)" fill="#7C8898">
            <g id="Group-2" transform="translate(170.000000, 62.000000)">
                <g id="Group-5" transform="translate(0.000000, 239.000000)">
                    <path d="M51.7099018,38.0004226 C47.0341116,38.1602204 43.2724799,42.0145933 43.2724799,46.7274735 C43.2724799,48.4042673 43.7454861,49.973391 44.5679016,51.3039935 L40.0849246,58.4288124 L40.0849246,58.4309424 C39.9677394,58.6152413 39.972002,58.8528135 40.0966431,59.0328362 C40.2212845,59.2128752 40.441798,59.3012966 40.655938,59.2576177 L45.7438089,58.2434253 L47.9937517,61.7462459 C48.0970882,61.9081736 48.2771354,62.0051175 48.4699487,61.9997913 C48.6627702,61.9944645 48.8374939,61.8879323 48.9312279,61.7206893 L51.9993317,56.2919176 L55.0674356,61.7206893 C55.1611832,61.8879432 55.3369596,61.9944732 55.5287147,61.9997913 C55.7215362,62.0051178 55.9026416,61.9081736 56.0049117,61.7462459 L58.2548545,58.2434253 L63.3427252,59.2576177 C63.5579179,59.3012966 63.7784505,59.2128752 63.9020201,59.0328362 C64.0266614,58.8527971 64.0319877,58.6152468 63.9137389,58.4309424 L59.4307619,51.3061235 C60.2531774,49.9755482 60.7261835,48.4051972 60.7261835,46.7296035 C60.7261835,42.6218897 57.8615291,39.2063402 54.0360809,38.2837273 L54.0360809,38.2815973 C53.7420611,38.2112873 53.4458868,38.3923899 53.3755795,38.6864234 C53.3052694,38.9815068 53.4863721,39.2766175 53.7804055,39.3479884 C57.1329567,40.1576405 59.6354385,43.1265287 59.6354385,46.7283462 C59.6354385,50.9522388 56.2231616,54.3645157 51.999269,54.3645157 C47.7753764,54.3645157 44.3630995,50.9522388 44.3630995,46.7283462 C44.3630995,42.5939059 47.6452888,39.2318095 51.7434573,39.0921767 C51.88834,39.0868505 52.0257774,39.0261266 52.1248295,38.9195965 C52.2239033,38.8141301 52.2771683,38.6735101 52.2729084,38.5286247 C52.2686458,38.3848083 52.2068583,38.2473955 52.1003283,38.1483162 C51.9948618,38.0492423 51.8542418,37.9959773 51.7093564,38.0002372 L51.7099018,38.0004226 Z M51.9314871,41.5457871 L51.9314871,41.5468534 C51.7461218,41.5702883 51.5852686,41.6853435 51.5053616,41.8536638 L50.2184488,44.4956421 L47.2951595,44.8876776 C47.085293,44.9121788 46.9084421,45.0549315 46.8413256,45.2530683 C46.7742118,45.4522823 46.8274768,45.6706577 46.9798157,45.8166176 L49.1189795,47.8449751 L48.5905838,50.716993 C48.5596901,50.8682683 48.5948437,51.024867 48.6875277,51.1484366 C48.780209,51.2720116 48.9218981,51.3508469 49.0763724,51.3646956 C49.1860987,51.3742818 49.2958277,51.3497806 49.3916917,51.2965155 L51.9995799,49.924405 L54.6074682,51.2965155 C54.7938971,51.3977193 55.0229303,51.382807 55.1944441,51.2581656 C55.3659607,51.1345906 55.4490531,50.9236468 55.4085732,50.7169794 L54.8801776,47.8449615 L57.0193414,45.8166039 C57.1716802,45.6717213 57.2260116,45.4544041 57.1610278,45.2562455 C57.0949776,45.0591614 56.9213312,44.915345 56.7125392,44.8876367 L53.7807955,44.4956012 L52.4938828,41.8536229 C52.392679,41.6416264 52.1668366,41.5180405 51.9313971,41.5468125 L51.9314871,41.5457871 Z M51.9996672,43.3440504 L52.9200983,45.2275116 L52.9200983,45.228578 C53.0010635,45.3905057 53.1576623,45.5023619 53.3376877,45.5268795 L55.4427615,45.8081087 L53.9172184,47.2654717 C53.7851182,47.390113 53.724397,47.572282 53.7552907,47.7512411 L54.1302812,49.8051526 L52.2638377,48.8250502 C52.0997801,48.7355652 51.9005742,48.7355652 51.7354421,48.8250502 L49.8689986,49.8051526 L50.2439891,47.7512411 C50.2759492,47.5722684 50.2152253,47.3901049 50.0820614,47.2654717 L48.5565183,45.8081087 L50.6615921,45.5268795 C50.8426948,45.5023756 50.9993017,45.3905193 51.0791815,45.228578 L51.9996126,43.3451168 L51.9996672,43.3440504 Z M45.2582931,52.2671872 C46.7081835,54.0281425 48.831475,55.2117487 51.2325049,55.4203798 L48.4202127,60.3890717 L46.4600353,57.3378765 L46.4600353,57.3389428 C46.3375238,57.1493177 46.110626,57.0544955 45.8890134,57.1003126 L41.6874839,57.9440547 L45.258484,52.268199 L45.2582931,52.2671872 Z M58.7410413,52.2671872 L62.3120414,57.9430429 L58.1105118,57.0993008 L58.1105118,57.1003671 C57.8889266,57.0545583 57.6620232,57.1493722 57.53949,57.3389974 L55.5793125,60.3901926 L52.7670204,55.4215007 C55.1682412,55.2127005 57.2914508,54.029127 58.7412322,52.2683081 L58.7410413,52.2671872 Z" id="Fill-1"></path>
                </g>
            </g>
        </g>
    </g>
</svg>