<?xml version="1.0" encoding="UTF-8" standalone="no"?>
<svg width="307px" height="48px" viewBox="0 0 307 48" version="1.1" xmlns="http://www.w3.org/2000/svg" xmlns:xlink="http://www.w3.org/1999/xlink" xmlns:sketch="http://www.bohemiancoding.com/sketch/ns">
    <!-- Generator: Sketch 3.3.1 (12002) - http://www.bohemiancoding.com/sketch -->
    <title>clouds</title>
    <desc>Created with Sketch.</desc>
    <defs>
        <rect id="path-1" x="0" y="0" width="326" height="145" rx="2"></rect>
    </defs>
    <g id="Page-1" stroke="none" stroke-width="1" fill="none" fill-rule="evenodd" sketch:type="MSPage">
        <g id="Rectangle-4-+-Clouds" sketch:type="MSLayerGroup" transform="translate(-19.000000, -97.000000)">
            <mask id="mask-2" sketch:name="Mask" fill="white">
                <use xlink:href="#path-1"></use>
            </mask>
            <use id="Mask" sketch:type="MSShapeGroup" xlink:href="#path-1"></use>
            <path d="M261.355106,152.514211 C257.734727,157.647277 251.758899,161 245,161 C239.86008,161 235.173017,159.061086 231.630322,155.874768 L231.630322,155.874768 C229.555408,156.603616 227.323994,157 225,157 C220.036911,157 215.496055,155.192202 212,152.199171 C208.503945,155.192202 203.963089,157 199,157 C194.270266,157 189.923995,155.358204 186.5,152.613427 L186.5,152.613427 C183.076005,155.358204 178.729734,157 174,157 C168.796801,157 164.057679,155.013052 160.5,151.756521 C156.942321,155.013052 152.203199,157 147,157 C139.91359,157 133.687979,153.314484 130.135375,147.755661 L130.135375,147.755661 C129.113874,147.916493 128.066689,148 127,148 C124.684257,148 122.460438,147.606426 120.391785,146.882519 C116.950722,152.92526 110.451214,157 103,157 C98.5723239,157 94.4806952,155.56121 91.1671494,153.125665 L91.1671494,153.125665 C88.7493867,154.931075 85.7495237,156 82.5,156 C78.9475811,156 75.6935351,154.722514 73.172198,152.601878 C71.8315508,153.48565 70.2258418,154 68.5,154 C65.0105544,154 62.0122121,151.897337 60.7028741,148.889911 C59.4633455,149.59639 58.0288068,150 56.5,150 C54.6205978,150 52.8836578,149.390047 51.4763389,148.3573 L51.4763389,148.3573 C49.9403211,150.559299 47.3884074,152 44.5,152 C41.8855811,152 39.5468455,150.81966 37.9876151,148.962801 C37.7472775,153.442007 34.0391456,157 29.5,157 C24.8055796,157 21,153.19442 21,148.5 C21,143.80558 24.8055796,140 29.5,140 C32.1144189,140 34.4531545,141.18034 36.0123849,143.037199 L36.0123849,143.037199 C36.2284261,139.01081 39.2465611,135.728792 43.1515728,135.106362 L43.1515728,135.106362 C43.0520808,134.586185 43,134.049175 43,133.5 C43,128.80558 46.8055796,125 51.5,125 C53.6101013,125 55.5406189,125.768889 57.0266655,127.041778 C57.0089609,126.696757 57,126.349425 57,126 C57,114.954305 65.954305,106 77,106 C85.3721556,106 92.5428119,111.14423 95.5235509,118.444272 C97.833238,117.512775 100.356737,117 103,117 C105.315743,117 107.539562,117.393574 109.608215,118.117481 L109.608215,118.117481 C113.049278,112.07474 119.548786,108 127,108 C134.08641,108 140.312021,111.685516 143.864625,117.244339 C144.886126,117.083507 145.933311,117 147,117 C152.203199,117 156.942321,118.986948 160.5,122.243479 L160.5,122.243479 C164.057679,118.986948 168.796801,117 174,117 C178.729734,117 183.076005,118.641796 186.5,121.386573 C189.923995,118.641796 194.270266,117 199,117 C203.963089,117 208.503945,118.807798 212,121.800829 L212,121.800829 C215.496055,118.807798 220.036911,117 225,117 C226.54949,117 228.057825,117.176207 229.50606,117.509676 C231.54398,108.626116 239.498184,102 249,102 C249.08529,102 249.170456,102.000534 249.255494,102.001598 C249.872797,100.252975 251.540074,99 253.5,99 C255.985281,99 258,101.014719 258,103.5 C258,103.70817 257.985865,103.913038 257.958502,104.113697 L257.958502,104.113697 C259.653662,104.964391 261.21116,106.048978 262.588654,107.325118 C263.853251,106.48768 265.369673,106 267,106 C267.859565,106 268.687467,106.135564 269.463493,106.386477 L269.463493,106.386477 C270.912196,104.337677 273.299883,103 276,103 C279.800307,103 282.981705,105.649861 283.797306,109.202694 L283.797306,109.202694 C287.350139,110.018295 290,113.199693 290,117 C290,120.436944 287.832641,123.367675 284.790116,124.5 L284.790116,124.5 C287.760836,125.605601 289.89721,128.425723 289.996395,131.75752 C291.366547,130.657871 293.106446,130 295,130 C299.018887,130 302.345624,132.963449 302.914226,136.824362 L302.914226,136.824362 C304.296666,135.684583 306.068386,135 308,135 C308.338741,135 308.672565,135.021053 309.000235,135.061923 C309.000078,135.0413 309,135.020659 309,135 C309,130.581722 312.581722,127 317,127 C319.419425,127 321.588001,128.074015 323.054966,129.771283 L323.054966,129.771283 C323.924953,129.280216 324.929752,129 326,129 C329.313708,129 332,131.686292 332,135 C332,137.208222 330.807084,139.137824 329.030528,140.179527 L329.030528,140.179527 C329.64874,141.314771 330,142.616365 330,144 C330,148.418278 326.418278,152 322,152 C318.771519,152 315.989706,150.087584 314.725599,147.333789 C314.499892,147.683342 314.247676,148.014172 313.971795,148.323436 C313.990473,148.546481 314,148.772128 314,149 C314,153.418278 310.418278,157 306,157 C303.004566,157 300.393642,155.353714 299.022668,152.91658 L299.022668,152.91658 C297.840867,153.605398 296.466515,154 295,154 C291.432847,154 288.41099,151.66531 287.379119,148.440619 L287.379119,148.440619 C285.45504,150.62318 282.638307,152 279.5,152 C277.068147,152 274.829386,151.173275 273.049437,149.785544 C271.699287,152.294518 269.048812,154 266,154 C264.268033,154 262.664615,153.449617 261.355106,152.514211 Z" id="Clouds" stroke="#99CDDD" stroke-width="2" stroke-linejoin="round" fill="#FFFFFF" sketch:type="MSShapeGroup" mask="url(#mask-2)"></path>
        </g>
    </g>
</svg>