<?xml version="1.0" encoding="UTF-8"?>
<svg width="100px" height="100px" viewBox="0 0 100 100" version="1.1" xmlns="http://www.w3.org/2000/svg" xmlns:xlink="http://www.w3.org/1999/xlink">
    <!-- Generator: Sketch 50.2 (55047) - http://www.bohemiancoding.com/sketch -->
    <title>Group 7 Copy</title>
    <desc>Created with Sketch.</desc>
    <defs></defs>
    <g id="Channel-Audit" stroke="none" stroke-width="1" fill="none" fill-rule="evenodd" opacity="0.5">
        <g id="vidIQ-Achievements-v3" transform="translate(-425.000000, -669.000000)">
            <g id="Group-2" transform="translate(170.000000, 62.000000)">
                <g id="Group-3-Copy-2" transform="translate(40.000000, 572.000000)">
                    <g id="Group-7-Copy" transform="translate(215.000000, 35.000000)">
                        <path d="M48.7912576,0.00176100534 C29.3087983,0.667584988 13.6353331,16.7274722 13.6353331,36.364473 C13.6353331,43.3511136 15.6061921,49.8891292 19.0329232,55.4333064 L0.353852546,85.1200517 L0.353852546,85.1289265 C-0.134419132,85.8968388 -0.11665822,86.8867227 0.402679714,87.6368173 C0.922018785,88.38698 1.84082497,88.7554025 2.73307502,88.5734071 L23.9325372,84.3476055 L33.3072989,98.9426913 C33.7378675,99.61739 34.4880644,100.021323 35.291453,99.9991303 C36.0948758,99.9769354 36.8228914,99.5330512 37.2134496,98.8362053 L49.9972155,76.2163235 L62.7809815,98.8362053 C63.1715965,99.5330967 63.9039984,99.9769718 64.7029781,99.9991303 C65.5064008,100.021324 66.2610066,99.61739 66.6871322,98.9426913 L76.0618939,84.3476055 L97.2613549,88.5734071 C98.1579912,88.7554025 99.076877,88.38698 99.5917502,87.6368173 C100.111089,86.8866546 100.133282,85.8968615 99.6405786,85.1289265 L80.9615079,55.4421812 C84.388239,49.8981176 86.359098,43.3549885 86.359098,36.3733478 C86.359098,19.2578738 74.4230378,5.02641736 58.4836703,1.18219691 L58.4836703,1.17332213 C57.2585878,0.88036367 56.0245282,1.63495812 55.7315811,2.86009743 C55.4386227,4.08961163 56.1932171,5.31923946 57.4183564,5.61661827 C71.3873195,8.99016887 81.8143272,21.3605362 81.8143272,36.3681093 C81.8143272,53.9676619 67.5965068,68.1854822 49.9969542,68.1854822 C32.3974016,68.1854822 18.1795812,53.9676619 18.1795812,36.3681093 C18.1795812,19.1412745 31.8553699,5.13253967 48.9310722,4.55073627 C49.53475,4.52854366 50.1074059,4.27552736 50.5201227,3.83165228 C50.9329304,3.39220891 51.1548679,2.80629198 51.1371184,2.20260278 C51.1193575,1.60336802 50.8619095,1.03081439 50.4180344,0.617983977 C49.978591,0.205176289 49.3926741,-0.0167612511 48.7889849,0.000988297711 L48.7912576,0.00176100534 Z M21.9095546,59.4466135 C27.9507646,66.783927 36.7978125,71.7156198 46.8021036,72.5849158 L35.0842197,93.2877986 L26.9168136,80.5744855 L26.9168136,80.5789285 C26.4063493,79.7888236 25.4609416,79.3937314 24.5375559,79.5846356 L7.0311828,83.1002281 L21.91035,59.4508293 L21.9095546,59.4466135 Z M78.0876719,59.4466135 L92.9668391,83.0960123 L75.460466,79.5804198 L75.460466,79.5848629 C74.537194,79.3939928 73.5917635,79.7890509 73.0812083,80.5791558 L64.9138023,93.292469 L53.1959183,72.5895862 C63.2010049,71.7195856 72.0477118,66.7880291 78.0884673,59.4512838 L78.0876719,59.4466135 Z" id="Fill-1" fill="#A9CEEC"></path>
                        <circle id="Oval-2" fill="#A9CEEC" cx="51" cy="39" r="39"></circle>
                        <g id="Group" transform="translate(35.392857, 24.566667)" fill="#FFFFFF" stroke="#FFFFFF">
                            <path d="M3.55555556,23.0293333 L9.99182222,23.0293333 L9.99182222,28.5265778 C9.99182222,28.9460267 10.2390436,29.3265767 10.6237511,29.4988078 C11.0070756,29.6696416 11.45568,29.5988078 11.7696,29.3196398 L18.7598222,23.0295076 L28.4444444,23.0295076 C29.3874844,23.0295076 30.2916622,22.6545031 30.9583289,21.9878364 C31.6249956,21.3211698 32,20.416992 32,19.473952 L32,3.82950756 C32,2.88646756 31.6249956,1.98228978 30.9583289,1.31562311 C30.2916622,0.648956444 29.3874844,0.273952 28.4444444,0.273952 L3.55555556,0.273952 C1.59168,0.273952 0,1.865632 0,3.82950756 L0,19.473952 C0,20.416992 0.375004444,21.3211698 1.04167111,21.9878364 C1.70833778,22.6545031 2.61251556,23.0295076 3.55555556,23.0295076 L3.55555556,23.0293333 Z M1.42222222,3.82933333 C1.42222222,2.65155556 2.37777778,1.696 3.55555556,1.696 L28.4444444,1.696 C29.6222222,1.696 30.5777778,2.65155556 30.5777778,3.82933333 L30.5777778,19.4737778 C30.5777778,20.6515556 29.6222222,21.6071111 28.4444444,21.6071111 L18.4888889,21.6071111 C18.3125013,21.6071111 18.1430542,21.6710009 18.0125156,21.789056 L11.41376,27.7335893 L11.41376,22.3184782 C11.41376,22.1295893 11.3387591,21.9490204 11.2054258,21.8156871 C11.0720924,21.6823538 10.8901476,21.6073529 10.7026347,21.6073529 L3.55525689,21.6073529 C2.37747911,21.6073529 1.42192391,20.6517973 1.42192391,19.4740196 L1.42222222,3.82933333 Z" id="Fill-1" stroke-width="3"></path>
                            <path d="M6.54198997,9.12154274 L25.45801,9.12154274 C25.8065377,9.12154274 26.088544,8.83952695 26.088544,8.49100874 C26.088544,8.14371061 25.8065282,7.86047473 25.45801,7.86047473 L6.54198997,7.86047473 C6.1934623,7.86047473 5.91145597,8.14372322 5.91145597,8.49100874 C5.91145597,8.8395364 6.19347176,9.12154274 6.54198997,9.12154274 Z" id="Fill-2"></path>
                            <path d="M6.54198997,15.2396142 L19.15267,15.2396142 C19.5011977,15.2396142 19.783204,14.9575984 19.783204,14.6090802 C19.783204,14.2605619 19.5011882,13.9785462 19.15267,13.9785462 L6.54198997,13.9785462 C6.1934623,13.9785462 5.91145597,14.2605619 5.91145597,14.6090802 C5.91145597,14.9575984 6.19347176,15.2396142 6.54198997,15.2396142 Z" id="Fill-4"></path>
                        </g>
                    </g>
                </g>
            </g>
        </g>
    </g>
</svg>