<?xml version="1.0" encoding="UTF-8"?>
<svg width="100px" height="100px" viewBox="0 0 100 100" version="1.1" xmlns="http://www.w3.org/2000/svg" xmlns:xlink="http://www.w3.org/1999/xlink">
    <!-- Generator: Sketch 50.2 (55047) - http://www.bohemiancoding.com/sketch -->
    <title>Group 7</title>
    <desc>Created with Sketch.</desc>
    <defs></defs>
    <g id="Channel-Audit" stroke="none" stroke-width="1" fill="none" fill-rule="evenodd" opacity="0.5">
        <g id="vidIQ-Achievements-v3" transform="translate(-1090.000000, -669.000000)">
            <g id="Group-2" transform="translate(170.000000, 62.000000)">
                <g id="Group-3-Copy-5" transform="translate(570.000000, 572.000000)">
                    <g id="Group-7" transform="translate(350.000000, 35.000000)">
                        <path d="M48.7912576,0.00176100534 C29.3087983,0.667584988 13.6353331,16.7274722 13.6353331,36.364473 C13.6353331,43.3511136 15.6061921,49.8891292 19.0329232,55.4333064 L0.353852546,85.1200517 L0.353852546,85.1289265 C-0.134419132,85.8968388 -0.11665822,86.8867227 0.402679714,87.6368173 C0.922018785,88.38698 1.84082497,88.7554025 2.73307502,88.5734071 L23.9325372,84.3476055 L33.3072989,98.9426913 C33.7378675,99.61739 34.4880644,100.021323 35.291453,99.9991303 C36.0948758,99.9769354 36.8228914,99.5330512 37.2134496,98.8362053 L49.9972155,76.2163235 L62.7809815,98.8362053 C63.1715965,99.5330967 63.9039984,99.9769718 64.7029781,99.9991303 C65.5064008,100.021324 66.2610066,99.61739 66.6871322,98.9426913 L76.0618939,84.3476055 L97.2613549,88.5734071 C98.1579912,88.7554025 99.076877,88.38698 99.5917502,87.6368173 C100.111089,86.8866546 100.133282,85.8968615 99.6405786,85.1289265 L80.9615079,55.4421812 C84.388239,49.8981176 86.359098,43.3549885 86.359098,36.3733478 C86.359098,19.2578738 74.4230378,5.02641736 58.4836703,1.18219691 L58.4836703,1.17332213 C57.2585878,0.88036367 56.0245282,1.63495812 55.7315811,2.86009743 C55.4386227,4.08961163 56.1932171,5.31923946 57.4183564,5.61661827 C71.3873195,8.99016887 81.8143272,21.3605362 81.8143272,36.3681093 C81.8143272,53.9676619 67.5965068,68.1854822 49.9969542,68.1854822 C32.3974016,68.1854822 18.1795812,53.9676619 18.1795812,36.3681093 C18.1795812,19.1412745 31.8553699,5.13253967 48.9310722,4.55073627 C49.53475,4.52854366 50.1074059,4.27552736 50.5201227,3.83165228 C50.9329304,3.39220891 51.1548679,2.80629198 51.1371184,2.20260278 C51.1193575,1.60336802 50.8619095,1.03081439 50.4180344,0.617983977 C49.978591,0.205176289 49.3926741,-0.0167612511 48.7889849,0.000988297711 L48.7912576,0.00176100534 Z M21.9095546,59.4466135 C27.9507646,66.783927 36.7978125,71.7156198 46.8021036,72.5849158 L35.0842197,93.2877986 L26.9168136,80.5744855 L26.9168136,80.5789285 C26.4063493,79.7888236 25.4609416,79.3937314 24.5375559,79.5846356 L7.0311828,83.1002281 L21.91035,59.4508293 L21.9095546,59.4466135 Z M78.0876719,59.4466135 L92.9668391,83.0960123 L75.460466,79.5804198 L75.460466,79.5848629 C74.537194,79.3939928 73.5917635,79.7890509 73.0812083,80.5791558 L64.9138023,93.292469 L53.1959183,72.5895862 C63.2010049,71.7195856 72.0477118,66.7880291 78.0884673,59.4512838 L78.0876719,59.4466135 Z" id="Fill-1" fill="#A9CEEC"></path>
                        <circle id="Oval-2" fill="#A9CEEC" cx="51" cy="39" r="39"></circle>
                        <g id="likes" transform="translate(38.000000, 26.000000)" fill="#FFFFFF" fill-rule="nonzero" stroke="#FFFFFF" stroke-width="2">
                            <g transform="translate(12.500000, 12.500000) rotate(-180.000000) translate(-12.500000, -12.500000) " id="Shape">
                                <path d="M4.17875848,18.0011941 C3.28860484,18.0111145 2.57782271,17.9098842 1.82268078,17.4994717 C0.662144189,16.868731 1.77288739e-13,15.6887001 0,14.0012615 L0,4.00126147 C-4.62592927e-16,2.23124045 0.915752666,1.03485703 2.4263338,0.44495785 C3.37127835,0.0759462145 4.28013345,-0.0123932768 5.50803126,0.00133479395 L17.7083333,0.00133479395 C18.2836299,0.00133479395 18.75,0.449050044 18.75,1.00133479 L18.75,14.0012615 C18.75,14.1411798 18.7194143,14.2795409 18.6602204,14.4073999 L14.4935537,23.4073999 C14.3263648,23.768528 13.9533216,24.0012615 13.5416667,24.0012615 C10.7375904,24.0012615 8.33333333,22.473407 8.33333333,20.0012615 L8.33333333,18.001248 L4.17875848,18.0011941 Z M16.6666667,2.00132907 L5.49596018,2.00126765 C3.24082621,1.97617826 2.08333333,2.42819244 2.08333333,4.00126147 L2.08333333,14.0012615 C2.08333333,15.6443383 2.76860116,16.0167749 4.16666667,16.0012615 L9.375,16.0012615 C9.95029661,16.0012615 10.4166667,16.4489767 10.4166667,17.0012615 L10.4166667,20.0012615 C10.4166667,21.0069868 11.4335526,21.7809438 12.8832006,21.9613336 L16.6666667,13.789047 L16.6666667,2.00132907 Z M18.75,13.0013159 L20.8522151,13.0014258 C21.9541808,13.0206047 22.9166667,12.2171548 22.9166667,11.0012615 L22.9166667,4.00126147 C22.9166667,2.75757466 22.033951,1.98266486 20.9517896,2.00133479 L18.75,2.00133479 L18.75,13.0013159 Z M17.7083333,0.00133479395 L20.9329078,0.00149909245 C23.1292829,-0.0367272773 25,1.60551964 25,4.00126147 L25,11.0012615 C25,13.3940103 23.0286399,15.0396336 20.8333333,15.0012615 L17.7083333,15.0012615 C17.1330367,15.0012615 16.6666667,14.5535462 16.6666667,14.0012615 L16.6666667,1.00133479 C16.6666667,0.449050044 17.1330367,0.00133479395 17.7083333,0.00133479395 Z"></path>
                            </g>
                        </g>
                    </g>
                </g>
            </g>
        </g>
    </g>
</svg>