<?xml version="1.0" encoding="UTF-8"?>
<svg width="87px" height="88px" viewBox="0 0 87 88" version="1.1" xmlns="http://www.w3.org/2000/svg" xmlns:xlink="http://www.w3.org/1999/xlink">
    <!-- Generator: Sketch 50.2 (55047) - http://www.bohemiancoding.com/sketch -->
    <title>Rocket</title>
    <desc>Created with Sketch.</desc>
    <defs></defs>
    <g id="Channel-Audit" stroke="none" stroke-width="1" fill="none" fill-rule="evenodd">
        <g id="Rocket" fill="#FFFFFF">
            <path d="M53.84432,18.85947 C53.84432,6.32847 45.53182,0.71447 45.18022,0.48047 L44.44975,0 L43.74663,0.51953 C35.01613,6.99613 35.12943,18.39853 35.14113,18.87853 L35.14113,48.57353 L25.99273,61.12053 L25.99273,76.27653 L35.14113,76.27653 L35.14113,79.10853 C35.14113,79.79994 35.69972,80.35853 36.39113,80.35853 L43.24273,80.35853 L43.24273,87.694429 L45.74273,87.694429 L45.74273,80.35853 L52.59433,80.35853 C53.28574,80.35853 53.84433,79.79994 53.84433,79.10853 L53.84433,76.27653 L62.99273,76.27653 L62.99273,61.12053 L53.84433,48.57753 L53.84432,18.85947 Z M51.34432,39.10947 L37.64132,39.10947 L37.64132,20.10947 L51.34432,20.10947 L51.34432,39.10947 Z M37.64132,41.60947 L51.34432,41.60947 L51.34432,54.35947 L37.64132,54.35947 L37.64132,41.60947 Z M44.50852,3.10547 C46.30542,4.59377 50.87962,9.19927 51.30542,17.60947 L37.69242,17.60947 C37.90726,14.78527 39.00102,7.69927 44.50882,3.10547 L44.50852,3.10547 Z M28.49252,73.77747 L28.49252,61.93347 L35.14092,52.82017 L35.14092,73.77717 L28.49252,73.77747 Z M37.64092,77.85947 L37.64092,56.85947 L51.34392,56.85947 L51.34392,77.85947 L37.64092,77.85947 Z M60.49292,61.93347 L60.49292,73.77747 L53.84452,73.77747 L53.84452,52.82046 L60.49292,61.93347 Z M44.49232,34.77747 C41.59782,34.77747 39.24232,32.42197 39.24232,29.52747 C39.24232,26.63297 41.59782,24.27747 44.49232,24.27747 C47.38682,24.27747 49.74232,26.63297 49.74232,29.52747 C49.74232,32.42197 47.38682,34.77747 44.49232,34.77747 Z M40.17632,70.53547 L40.17632,59.52747 L42.67632,59.52747 L42.67632,70.53547 L40.17632,70.53547 Z M40.17632,75.02747 L40.17632,72.02747 L42.67632,72.02747 L42.67632,75.02747 L40.17632,75.02747 Z M38.28532,87.695469 L38.28532,83.402469 L40.78532,83.402469 L40.78532,87.695469 L38.28532,87.695469 Z M48.11732,87.695469 L48.11732,83.402469 L50.61732,83.402469 L50.61732,87.695469 L48.11732,87.695469 Z M40.17632,51.85947 L40.17632,44.85947 L42.67632,44.85947 L42.67632,51.85947 L40.17632,51.85947 Z M7.44532,72.88247 L7.44476,72.88289 C7.44476,66.57379 12.57806,61.44098 18.88276,61.44489 C20.69136,61.44489 22.49206,61.87848 24.09366,62.69879 L22.95306,64.92539 C21.68746,64.27695 20.31636,63.94883 18.88276,63.94883 C13.95696,63.94883 9.94526,67.95663 9.94526,72.88633 C9.94526,73.69103 10.06245,74.50354 10.28901,75.31213 L10.75776,76.97623 L8.85936,76.88639 C8.80468,76.88248 8.74999,76.87857 8.6953,76.87857 C5.2773,76.87857 2.5,79.65977 2.5,83.07387 L0,83.07387 C0,78.66367 3.3008,75.01136 7.5586,74.45277 C7.48438,73.92937 7.44532,73.402 7.44532,72.88247 Z M77.58232,68.48847 L77.58275,68.48834 C82.38355,68.91024 86.16084,72.95314 86.16475,77.86334 L83.66475,77.86334 C83.66475,74.05484 80.56715,70.95714 76.75855,70.95714 C76.70777,70.95714 76.65699,70.96105 76.60621,70.96496 L75.14141,71.03527 L75.14532,69.60947 C75.14132,64.13677 70.61372,59.60947 65.04732,59.60947 L65.04732,57.10947 C71.57842,57.10947 76.96904,62.10957 77.58232,68.48847 Z M25.99232,41.02747 L25.99232,25.52747 L28.49232,25.52747 L28.49232,41.02747 L25.99232,41.02747 Z M18.99232,51.85947 L18.99232,37.52747 L21.49232,37.52747 L21.49232,51.85947 L18.99232,51.85947 Z M59.82832,41.02747 L59.82832,25.52747 L62.32832,25.52747 L62.32832,41.02747 L59.82832,41.02747 Z M66.82832,51.85947 L66.82832,37.52747 L69.32832,37.52747 L69.32832,51.85947 L66.82832,51.85947 Z"></path>
        </g>
    </g>
</svg>