<?xml version="1.0" encoding="UTF-8"?>
<svg width="100px" height="100px" viewBox="0 0 100 100" version="1.1" xmlns="http://www.w3.org/2000/svg" xmlns:xlink="http://www.w3.org/1999/xlink">
    <!-- Generator: Sketch 50.2 (55047) - http://www.bohemiancoding.com/sketch -->
    <title>subs-achievements</title>
    <desc>Created with Sketch.</desc>
    <defs></defs>
    <g id="Channel-Audit" stroke="none" stroke-width="1" fill="none" fill-rule="evenodd">
        <g id="vidIQ-Achievements-v3-Copy-2" transform="translate(-560.000000, -436.000000)">
            <g id="Group-2" transform="translate(170.000000, 62.000000)">
                <g id="Group-3" transform="translate(40.000000, 339.000000)">
                    <g id="subs-achievements" transform="translate(350.000000, 35.000000)">
                        <g id="key-achivement-shape" fill="#D4E7F6">
                            <path d="M75.4610429,79.581 L75.4610429,79.585 C74.5370429,79.394 73.5920429,79.789 73.0810429,80.58 L64.9140429,93.293 L56.0660429,77.662 C66.0280429,76.369 74.8100429,71.325 80.9420429,63.984 L92.9670429,83.097 L75.4610429,79.581 Z M35.0840429,93.288 L26.9170429,80.575 L26.9170429,80.58 C26.4060429,79.789 25.4610429,79.394 24.5370429,79.585 L7.03104288,83.101 L19.9410429,62.581 C25.7380429,70.205 34.2770429,75.622 44.0900429,77.378 L35.0840429,93.288 Z M99.6410429,85.129 L83.8430429,60.021 C87.7340429,53.954 90.0000429,46.744 90.0000429,39 C90.0000429,17.461 72.5390429,0 51.0000429,0 C50.4230429,0 49.8510429,0.019 49.2790429,0.044 C49.1190429,0.014 48.9550429,-0.003 48.7890429,0.001 L48.7910429,0.002 C40.1990429,0.296 32.3510429,3.587 26.2580429,8.855 C17.5530429,16.008 12.0000429,26.855 12.0000429,39 C12.0000429,46.063 13.8870429,52.681 17.1700429,58.395 L0.354042877,85.121 L0.354042877,85.129 C-0.134957123,85.897 -0.115957123,86.887 0.402042877,87.637 C0.922042877,88.388 1.84104288,88.756 2.73304288,88.574 L23.9330429,84.348 L33.3080429,98.943 C33.7380429,99.618 34.4880429,100.022 35.2910429,99.999 C36.0950429,99.977 36.8230429,99.534 37.2140429,98.837 L49.0180429,77.95 C49.6740429,77.983 50.3350429,78 51.0000429,78 L51.0050429,78 L62.7810429,98.837 C63.1720429,99.534 63.9040429,99.977 64.7030429,99.999 C65.5070429,100.022 66.2610429,99.618 66.6880429,98.943 L76.0620429,84.348 L97.2620429,88.574 C98.1580429,88.756 99.0770429,88.388 99.5920429,87.637 C100.111043,86.887 100.133043,85.897 99.6410429,85.129 Z" id="Fill-1"></path>
                        </g>
                        <g id="subs" transform="translate(34.000000, 22.000000)" fill="#FFFFFF">
                            <path d="M34,12.592 L31.456,12.592 L31.456,10.048 C31.456,8.943 30.561,8.048 29.456,8.048 C28.352,8.048 27.456,8.943 27.456,10.048 L27.456,12.592 L24.911,12.592 C23.807,12.592 22.911,13.488 22.911,14.592 C22.911,15.696 23.807,16.592 24.911,16.592 L27.456,16.592 L27.456,19.136 C27.456,20.241 28.352,21.136 29.456,21.136 C30.561,21.136 31.456,20.241 31.456,19.136 L31.456,16.592 L34,16.592 C35.104,16.592 36,15.696 36,14.592 C36,13.488 35.104,12.592 34,12.592 M8.544,7.335 C8.544,9.176 10.037,10.67 11.879,10.67 C13.721,10.67 15.214,9.176 15.214,7.335 C15.214,5.493 13.721,4 11.879,4 C10.037,4 8.544,5.493 8.544,7.335 M4.544,7.335 C4.544,3.284 7.828,0 11.879,0 C15.93,0 19.214,3.284 19.214,7.335 C19.214,11.386 15.93,14.67 11.879,14.67 C7.828,14.67 4.544,11.386 4.544,7.335 M22.968,26.941 L22.968,32.078 C22.968,33.182 22.072,34.078 20.968,34.078 C19.863,34.078 18.968,33.182 18.968,32.078 L18.968,26.941 C18.968,24.952 17.557,23.408 15.91,23.408 L7.059,23.408 C5.411,23.408 4,24.952 4,26.941 L4,32.078 C4,33.182 3.104,34.078 2,34.078 C0.896,34.078 0,33.182 0,32.078 L0,26.941 C0,22.819 3.118,19.408 7.059,19.408 L15.91,19.408 C19.85,19.408 22.968,22.819 22.968,26.941" id="Fill-1"></path>
                        </g>
                    </g>
                </g>
            </g>
        </g>
    </g>
</svg>