<?xml version="1.0" encoding="UTF-8"?>
<svg width="100px" height="100px" viewBox="0 0 100 100" version="1.1" xmlns="http://www.w3.org/2000/svg" xmlns:xlink="http://www.w3.org/1999/xlink">
    <!-- Generator: Sketch 50.2 (55047) - http://www.bohemiancoding.com/sketch -->
    <title>Group 9</title>
    <desc>Created with Sketch.</desc>
    <defs></defs>
    <g id="Channel-Audit" stroke="none" stroke-width="1" fill="none" fill-rule="evenodd">
        <g id="vidIQ-Achievements-v3" transform="translate(-210.000000, -158.000000)">
            <g id="Group-9" transform="translate(210.000000, 158.000000)">
                <path d="M12.2340988,85.0616884 C2.23243216,74.2950217 -1.99090128,59.378355 0.885140491,44.965855 C3.76191028,30.553355 13.3893072,18.3991884 26.7601405,12.30023 C40.1309738,6.20075086 55.6215988,6.89658419 68.3903488,14.1679384 L68.4513801,14.6765634 L61.5136717,21.6142717 L61.5177447,21.6142717 C51.2272238,16.6215634 39.1750363,16.8168759 29.051078,22.1432404 C18.927328,27.4655321 11.9364947,37.2880321 10.2239947,48.5963654 C8.50691132,59.9036571 12.2665988,71.3546988 20.3558697,79.4432404 C28.4451405,87.5317821 39.895453,91.2921988 51.2027447,89.5751154 C62.514203,87.8620946 72.332953,80.8714696 77.6558697,70.7480321 C82.9822238,60.6242821 83.1775363,48.5719904 78.1848384,38.2813654 L85.1225467,31.3436571 L85.6311717,31.4046988 L85.6311717,31.4087613 C90.5465884,40.0391779 92.5119009,50.0368863 91.2301301,59.8837613 C89.9524217,69.7307404 85.4928384,78.8941779 78.5384634,85.98273 C79.7144009,89.1890738 81.4559634,93.8277248 82.5992967,96.8670998 C82.8800572,97.5751102 82.7905363,98.3726206 82.3592238,99.0033498 C81.9319738,99.6299748 81.2157863,100.000256 80.454953,99.9921206 L69.879953,99.9921206 C69.2289113,99.9921206 68.6022447,99.731704 68.142453,99.2719019 L64.6227655,95.7522144 C52.3706822,101.294194 38.2998488,101.155861 26.1623488,95.3778602 L22.2682863,99.2719227 C21.8044217,99.7317248 21.1777655,99.9921415 20.5267238,99.9921415 L9.98401549,99.9921415 C9.22310924,100.00028 8.51099466,99.6299956 8.0797457,99.0033706 C7.6484332,98.3726727 7.55891237,97.5751425 7.83967278,96.8671206 C9.10102591,93.5101415 11.0705051,88.2530634 12.2342551,85.0629592 L12.2340988,85.0616884 Z" id="Fill-1" fill="#7C8898"></path>
                <path d="M46.3361822,46.5200217 L46.3402447,46.5200217 C43.2152447,46.3002925 40.2855572,48.03773 38.9834738,50.8860634 C37.6854634,53.7343967 38.2876717,57.0912717 40.5011822,59.3048134 C42.7187967,61.518355 46.0717134,62.124605 48.9199322,60.8265842 C51.7682655,59.5245009 53.5097238,56.5907509 53.2859738,53.4698134 L82.5911822,24.13648 L87.7995155,24.7305529 C88.5441405,24.8160009 89.2887863,24.5555842 89.8177447,24.0225425 L99.3921197,14.5213967 C99.8071613,14.106355 99.949578,13.4878654 99.7542655,12.9345217 C99.5630259,12.3811363 99.0706717,11.9864384 98.4846822,11.9172717 L88.9632238,10.875605 L87.9215572,1.35414669 C87.856453,0.772282108 87.4617551,0.275813358 86.9043072,0.0845633577 C86.3509217,-0.106676226 85.7324322,0.0316675243 85.3174322,0.446709191 L75.7878488,9.97629252 L75.7878488,9.98036544 C75.2548072,10.5093342 74.9943905,11.2540113 75.0798384,11.9985946 L75.6739113,17.2069279 L46.3361822,46.5200217 Z" id="Path" fill="#00C392"></path>
                <path d="M45.7665155,36.884605 L46.1734113,36.884605 L54.5067447,28.5512717 C46.7715363,25.8820009 38.243203,26.8748134 31.3296613,31.2449175 C24.4164322,35.6190842 19.8629947,42.8990842 18.955703,51.0282509 C18.0523801,59.1581467 20.892578,67.2595009 26.6787238,73.0459592 C32.4648697,78.832105 40.5662238,81.6722092 48.6964322,80.76898 C56.8303905,79.8615946 64.1058072,75.3124175 68.4797655,68.3950217 C72.8498697,61.4817925 73.8426822,52.953355 71.1734113,45.2179384 L62.840078,53.5512717 L62.840078,53.9581675 C62.8441509,58.4910842 61.0455988,62.8367092 57.8392447,66.0435842 C54.636953,69.2499384 50.2912238,71.0525425 45.7579947,71.0525425 C41.2291405,71.0525425 36.879453,69.2540009 33.6767447,66.0476467 C30.4703905,62.845355 28.6718488,58.4996259 28.6718488,53.9663967 C28.6718488,49.43348 30.474453,45.087855 33.6808072,41.8851467 C36.8871613,38.682855 41.2328905,36.8843134 45.7662238,36.8843134 L45.7665155,36.884605 Z" id="Path" fill="#539CD9"></path>
            </g>
        </g>
    </g>
</svg>