<?xml version="1.0" encoding="UTF-8"?>
<svg width="177px" height="130px" viewBox="0 0 177 130" version="1.1" xmlns="http://www.w3.org/2000/svg" xmlns:xlink="http://www.w3.org/1999/xlink">
    <!-- Generator: Sketch 50.2 (55047) - http://www.bohemiancoding.com/sketch -->
    <title>Group 29</title>
    <desc>Created with Sketch.</desc>
    <defs></defs>
    <g id="Channel-Audit" stroke="none" stroke-width="1" fill="none" fill-rule="evenodd">
        <g id="Group-29">
            <g id="Graph-Bg" fill="#DFE2E6">
                <path d="M146.032018,89.9953077 C149.06688,89.9953077 151.531332,92.4622888 151.531332,95.5002654 C151.531332,98.538242 149.06688,101.005223 146.032018,101.005223 C142.997155,101.005223 140.532703,98.538242 140.532703,95.5002654 C140.532703,92.4622888 142.997155,89.9953077 146.032018,89.9953077 M41.1404649,101.005223 C38.1056027,101.005223 35.6411507,98.538242 35.6411507,95.5002654 C35.6411507,92.4622888 38.1056027,89.9953077 41.1404649,89.9953077 C44.1753272,89.9953077 46.6397792,92.4622888 46.6397792,95.5002654 C46.6397792,98.538242 44.1753272,101.005223 41.1404649,101.005223 M53.6275546,38.9997 C53.6275546,48.5776263 57.081983,57.3425589 62.803068,64.1305067 L46.8945158,80.0573842 C45.0993718,79.3853893 43.1663704,79.0003923 41.1404649,79.0003923 C32.0498637,79.0003923 24.6575066,86.3993354 24.6575066,95.5002654 C24.6575066,98.3472435 25.3817578,101.026223 26.654442,103.366205 C26.563536,103.446204 26.4626403,103.508204 26.3757302,103.594203 L0,130 L15.3551244,130 L34.0537918,111.280144 C34.2555832,111.078146 34.4204128,110.854147 34.5842434,110.631149 C36.5951643,111.507142 38.8098745,112.000138 41.1404649,112.000138 C50.2310662,112.000138 57.6234232,104.584196 57.6234232,95.5002654 C57.6234232,92.4072892 56.7533228,89.5213114 55.2698566,87.0453304 L70.897699,71.3994508 C77.0982882,75.5664187 84.5575761,78.0004 92.5872742,78.0004 C101.13144,78.0004 109.026278,75.2394212 115.448638,70.5714571 L131.902626,87.0453304 C130.418161,89.5213114 129.549059,92.4072892 129.549059,95.5002654 C129.549059,104.599195 136.941417,112.000138 146.032018,112.000138 C155.122619,112.000138 162.529961,104.599195 162.514976,95.5002654 C162.514976,92.6672872 161.796719,90.0003077 160.537021,87.6693256 L177,71.1874524 L177,55.8145707 L152.51032,80.3313821 C150.520377,79.4763886 148.33164,79.0003923 146.032018,79.0003923 C144.006112,79.0003923 142.072112,79.3853893 140.277967,80.0573842 L123.264557,63.0245152 C128.448198,56.4015661 131.546994,48.0656303 131.546994,38.9997 C131.546994,17.4608657 114.104028,0 92.5872742,0 C71.0705203,0 53.6275546,17.4608657 53.6275546,38.9997" id="Fill-1"></path>
            </g>
            <g id="time" transform="translate(77.000000, 22.000000)" fill="#FFFFFF">
                <path d="M20.257012,22.3141111 C19.8179009,23.1862346 18.7503453,23.539321 17.8712342,23.104142 L13.4267897,20.8973519 C12.825012,20.5981111 12.4445675,19.9863889 12.4445675,19.3172901 L12.4445675,12.6969198 C12.4445675,11.7224012 13.2401231,10.9314877 14.2223453,10.9314877 C15.2036786,10.9314877 16.0001231,11.7224012 16.0001231,12.6969198 L16.0001231,18.2271358 L19.4614564,19.9449012 C20.3405675,20.3818457 20.6961231,21.4419877 20.257012,22.3141111 M16.0001231,29.4685247 C9.12723419,29.4685247 3.55567863,23.9356605 3.55567863,17.1105 C3.55567863,10.2862222 9.12723419,4.75247531 16.0001231,4.75247531 C22.873012,4.75247531 28.4445675,10.2862222 28.4445675,17.1105 C28.4445675,23.9356605 22.873012,29.4685247 16.0001231,29.4685247 M16.0001231,1.22161111 C7.16367863,1.22161111 0.000123076923,8.33630247 0.000123076923,17.1105 C0.000123076923,25.8855802 7.16367863,32.9993889 16.0001231,32.9993889 C24.8365675,32.9993889 32.0001231,25.8855802 32.0001231,17.1105 C32.0001231,8.33630247 24.8365675,1.22161111 16.0001231,1.22161111"></path>
            </g>
        </g>
    </g>
</svg>