<?xml version="1.0" encoding="UTF-8"?>
<svg width="177px" height="130px" viewBox="0 0 177 130" version="1.1" xmlns="http://www.w3.org/2000/svg" xmlns:xlink="http://www.w3.org/1999/xlink">
    <!-- Generator: Sketch 50.2 (55047) - http://www.bohemiancoding.com/sketch -->
    <title>Group 6</title>
    <desc>Created with Sketch.</desc>
    <defs></defs>
    <g id="Channel-Audit" stroke="none" stroke-width="1" fill="none" fill-rule="evenodd">
        <g id="vidIQ-Achievements-v3-Copy-2" transform="translate(-1053.000000, -951.000000)">
            <g id="Group-2" transform="translate(170.000000, 62.000000)">
                <g id="Group-3-Copy-7" transform="translate(570.000000, 865.000000)">
                    <g id="Group-7" transform="translate(313.000000, 24.000000)">
                        <g id="Group-6">
                            <g id="Graph-Bg" fill="#DFE2E6">
                                <path d="M146.032018,89.9953077 C149.06688,89.9953077 151.531332,92.4622888 151.531332,95.5002654 C151.531332,98.538242 149.06688,101.005223 146.032018,101.005223 C142.997155,101.005223 140.532703,98.538242 140.532703,95.5002654 C140.532703,92.4622888 142.997155,89.9953077 146.032018,89.9953077 M41.1404649,101.005223 C38.1056027,101.005223 35.6411507,98.538242 35.6411507,95.5002654 C35.6411507,92.4622888 38.1056027,89.9953077 41.1404649,89.9953077 C44.1753272,89.9953077 46.6397792,92.4622888 46.6397792,95.5002654 C46.6397792,98.538242 44.1753272,101.005223 41.1404649,101.005223 M53.6275546,38.9997 C53.6275546,48.5776263 57.081983,57.3425589 62.803068,64.1305067 L46.8945158,80.0573842 C45.0993718,79.3853893 43.1663704,79.0003923 41.1404649,79.0003923 C32.0498637,79.0003923 24.6575066,86.3993354 24.6575066,95.5002654 C24.6575066,98.3472435 25.3817578,101.026223 26.654442,103.366205 C26.563536,103.446204 26.4626403,103.508204 26.3757302,103.594203 L0,130 L15.3551244,130 L34.0537918,111.280144 C34.2555832,111.078146 34.4204128,110.854147 34.5842434,110.631149 C36.5951643,111.507142 38.8098745,112.000138 41.1404649,112.000138 C50.2310662,112.000138 57.6234232,104.584196 57.6234232,95.5002654 C57.6234232,92.4072892 56.7533228,89.5213114 55.2698566,87.0453304 L70.897699,71.3994508 C77.0982882,75.5664187 84.5575761,78.0004 92.5872742,78.0004 C101.13144,78.0004 109.026278,75.2394212 115.448638,70.5714571 L131.902626,87.0453304 C130.418161,89.5213114 129.549059,92.4072892 129.549059,95.5002654 C129.549059,104.599195 136.941417,112.000138 146.032018,112.000138 C155.122619,112.000138 162.529961,104.599195 162.514976,95.5002654 C162.514976,92.6672872 161.796719,90.0003077 160.537021,87.6693256 L177,71.1874524 L177,55.8145707 L152.51032,80.3313821 C150.520377,79.4763886 148.33164,79.0003923 146.032018,79.0003923 C144.006112,79.0003923 142.072112,79.3853893 140.277967,80.0573842 L123.264557,63.0245152 C128.448198,56.4015661 131.546994,48.0656303 131.546994,38.9997 C131.546994,17.4608657 114.104028,0 92.5872742,0 C71.0705203,0 53.6275546,17.4608657 53.6275546,38.9997" id="Fill-1"></path>
                            </g>
                            <g id="views" transform="translate(75.000000, 25.000000)" fill="#FFFFFF">
                                <path d="M22.7999083,13 C22.7999083,15.6108333 20.6518934,17.7272727 17.999875,17.7272727 C15.3488566,17.7272727 13.1998417,15.6108333 13.1998417,13 C13.1998417,10.3891667 15.3488566,8.27272727 17.999875,8.27272727 C20.6518934,8.27272727 22.7999083,10.3891667 22.7999083,13 M17.999875,22.0606061 C10.7858249,22.0606061 5.89079091,15.4562121 4.31877999,12.9970455 C5.88279085,10.5349242 10.7528247,3.93939394 17.999875,3.93939394 C25.2129251,3.93939394 30.1079591,10.5408333 31.67997,13 C30.1059591,15.4621212 25.2109251,22.0606061 17.999875,22.0606061 M35.7749984,12.0919697 C35.5149966,11.5985606 29.2669532,0 17.999875,0 C6.73379676,0 0.485753373,11.5985606 0.225751568,12.0919697 C-0.0752505226,12.6612121 -0.0752505226,13.3387879 0.225751568,13.9080303 C0.485753373,14.4014394 6.73379676,26 17.999875,26 C29.2669532,26 35.5149966,14.4014394 35.7749984,13.9080303 C36.0750005,13.3387879 36.0750005,12.6612121 35.7749984,12.0919697" id="Fill-1"></path>
                            </g>
                        </g>
                    </g>
                </g>
            </g>
        </g>
    </g>
</svg>