<?xml version="1.0" encoding="UTF-8"?>
<svg width="177px" height="130px" viewBox="0 0 177 130" version="1.1" xmlns="http://www.w3.org/2000/svg" xmlns:xlink="http://www.w3.org/1999/xlink">
    <!-- Generator: Sketch 50.2 (55047) - http://www.bohemiancoding.com/sketch -->
    <title>top-likes</title>
    <desc>Created with Sketch.</desc>
    <defs></defs>
    <g id="Channel-Audit" stroke="none" stroke-width="1" fill="none" fill-rule="evenodd">
        <g id="vidIQ-Achievements-v3-Copy-2" transform="translate(-1053.000000, -1184.000000)">
            <g id="Group-2" transform="translate(170.000000, 62.000000)">
                <g id="Group-3-Copy-9" transform="translate(570.000000, 1098.000000)">
                    <g id="Group-7" transform="translate(313.000000, 24.000000)">
                        <g id="top-likes">
                            <g id="Graph-Bg" fill="#DFE2E6">
                                <path d="M146.032018,89.9953077 C149.06688,89.9953077 151.531332,92.4622888 151.531332,95.5002654 C151.531332,98.538242 149.06688,101.005223 146.032018,101.005223 C142.997155,101.005223 140.532703,98.538242 140.532703,95.5002654 C140.532703,92.4622888 142.997155,89.9953077 146.032018,89.9953077 M41.1404649,101.005223 C38.1056027,101.005223 35.6411507,98.538242 35.6411507,95.5002654 C35.6411507,92.4622888 38.1056027,89.9953077 41.1404649,89.9953077 C44.1753272,89.9953077 46.6397792,92.4622888 46.6397792,95.5002654 C46.6397792,98.538242 44.1753272,101.005223 41.1404649,101.005223 M53.6275546,38.9997 C53.6275546,48.5776263 57.081983,57.3425589 62.803068,64.1305067 L46.8945158,80.0573842 C45.0993718,79.3853893 43.1663704,79.0003923 41.1404649,79.0003923 C32.0498637,79.0003923 24.6575066,86.3993354 24.6575066,95.5002654 C24.6575066,98.3472435 25.3817578,101.026223 26.654442,103.366205 C26.563536,103.446204 26.4626403,103.508204 26.3757302,103.594203 L0,130 L15.3551244,130 L34.0537918,111.280144 C34.2555832,111.078146 34.4204128,110.854147 34.5842434,110.631149 C36.5951643,111.507142 38.8098745,112.000138 41.1404649,112.000138 C50.2310662,112.000138 57.6234232,104.584196 57.6234232,95.5002654 C57.6234232,92.4072892 56.7533228,89.5213114 55.2698566,87.0453304 L70.897699,71.3994508 C77.0982882,75.5664187 84.5575761,78.0004 92.5872742,78.0004 C101.13144,78.0004 109.026278,75.2394212 115.448638,70.5714571 L131.902626,87.0453304 C130.418161,89.5213114 129.549059,92.4072892 129.549059,95.5002654 C129.549059,104.599195 136.941417,112.000138 146.032018,112.000138 C155.122619,112.000138 162.529961,104.599195 162.514976,95.5002654 C162.514976,92.6672872 161.796719,90.0003077 160.537021,87.6693256 L177,71.1874524 L177,55.8145707 L152.51032,80.3313821 C150.520377,79.4763886 148.33164,79.0003923 146.032018,79.0003923 C144.006112,79.0003923 142.072112,79.3853893 140.277967,80.0573842 L123.264557,63.0245152 C128.448198,56.4015661 131.546994,48.0656303 131.546994,38.9997 C131.546994,17.4608657 114.104028,0 92.5872742,0 C71.0705203,0 53.6275546,17.4608657 53.6275546,38.9997" id="Fill-1"></path>
                            </g>
                            <g id="likes" transform="translate(79.000000, 25.000000)" fill="#FFFFFF">
                                <path d="M10.333,21.9987793 L10.333,11.4323656 L13.687,4.18676768 C14.27,4.38375675 14.583,4.70573888 14.583,4.99972257 L14.583,7.99955611 C14.583,9.1134943 15.506,9.99944513 16.625,9.99944513 L21.833,9.99944513 C22.839,9.98844574 22.917,10.055442 22.917,10.9993896 L22.917,20.9988348 C22.917,21.7657922 22.442,22.0197781 20.516,21.9987793 L10.333,21.9987793 Z M6.25,12.9992787 L6.25,21.9987793 L5.048,21.9987793 C4.463,22.0087787 4.083,21.6387993 4.083,20.9988348 L4.083,13.9992232 C4.083,13.4002564 4.527,12.9882793 5.131,12.9992787 L6.25,12.9992787 Z M24.654,6.62363246 C23.789,6.15265859 22.953,5.98766775 21.815,5.99966708 L18.667,5.99966708 L18.667,4.99972257 C18.667,2.00288886 15.908,0 12.458,0 C11.661,0 10.932,0.455974698 10.599,1.17393486 L6.976,8.99950062 L5.167,8.99950062 C2.354,8.95050334 0,11.1163832 0,13.9992232 L0,20.9988348 C0,23.8936741 2.267,26.0475546 5.084,25.9985573 L8.292,25.9985573 L20.492,25.9985573 C21.939,26.0155564 22.919,25.8845637 23.937,25.4865858 C25.878,24.7286278 27,23.1337163 27,20.9988348 L27,10.9993896 C27,8.99650079 26.18,7.45158651 24.654,6.62363246 Z" id="Fill-1"></path>
                            </g>
                        </g>
                    </g>
                </g>
            </g>
        </g>
    </g>
</svg>