<?xml version="1.0" encoding="UTF-8"?>
<svg width="24px" height="24px" viewBox="0 0 24 24" version="1.1" xmlns="http://www.w3.org/2000/svg" xmlns:xlink="http://www.w3.org/1999/xlink">
    <!-- Generator: Sketch 50.2 (55047) - http://www.bohemiancoding.com/sketch -->
    <title>Fill 2</title>
    <desc>Created with Sketch.</desc>
    <defs></defs>
    <g id="Channel-Audit" stroke="none" stroke-width="1" fill="none" fill-rule="evenodd">
        <g id="vidIQ-Achievements-v3" transform="translate(-210.000000, -865.000000)" fill="#7C8898">
            <g id="Group-2" transform="translate(170.000000, 62.000000)">
                <g id="Group-5-Copy" transform="translate(0.000000, 765.000000)">
                    <path d="M60.7173116,38.0000957 C58.9049956,38.0000957 57.4316772,39.4509505 57.4316772,41.2346763 C57.4316772,42.2804188 57.9464596,43.2028023 58.7316997,43.7948355 L56.1553309,49.9098106 C56.0107464,49.8898677 55.8674063,49.8661851 55.7178313,49.8661851 C54.8017018,49.8661851 53.974087,50.2376338 53.3770441,50.8359211 L50.1536315,49.0236051 C50.2246793,48.7568679 50.2757811,48.4826576 50.2757811,48.1947139 C50.2757811,46.4110838 48.8024945,44.9601333 46.9901466,44.9601333 C45.1778306,44.9601333 43.7032358,46.4109881 43.7032358,48.1947139 C43.7032358,49.3028059 44.2728692,50.2812529 45.1391254,50.8645751 L43.553648,55.2670126 C43.4639049,55.2595332 43.379146,55.2408379 43.2869108,55.2408379 C41.4745948,55.2408379 40,56.6916926 40,58.4741421 C40,60.2590486 41.474531,61.7099991 43.2869108,61.7099991 C45.0979824,61.7099991 46.5725452,60.2591443 46.5725452,58.4741421 C46.5725452,57.3672946 46.0029119,56.3888476 45.1366557,55.8055254 L46.722133,51.4030879 C46.8118761,51.4093197 46.8978795,51.4292626 46.9888703,51.4292626 C47.9049997,51.4292626 48.7326146,51.0565695 49.3296575,50.4595266 L52.55307,52.2730871 C52.4807778,52.5385767 52.4296729,52.8140345 52.4296729,53.1019782 C52.4296729,54.8856084 53.9042038,56.3365588 55.7165837,56.3365588 C57.5288997,56.3365588 59.0022181,54.8857041 59.0022181,53.1019782 C59.0022181,52.0562358 58.4874357,51.1338523 57.70344,50.5430635 L60.2798088,44.4280884 C60.4243934,44.4467837 60.5677334,44.4717139 60.7173084,44.4717139 C62.5296245,44.4717139 64.0042192,43.0208591 64.0042192,41.2371333 C64.0042192,39.4509824 62.5296883,38 60.7173084,38 L60.7173116,38.0000957 Z M43.2872075,60.0607842 C42.3984876,60.0607842 41.6755651,59.3490616 41.6755651,58.4740624 C41.6755651,57.601552 42.3984876,56.8898613 43.2872075,56.8898613 C44.1746511,56.8898613 44.8976056,57.601584 44.8976056,58.4740624 C44.89885,59.3490616 44.1759275,60.0607842 43.2872075,60.0607842 Z M46.9902072,49.7801339 C46.1027637,49.7801339 45.3798092,49.0684113 45.3798092,48.1946565 C45.3798092,47.3209017 46.1027317,46.6091791 46.9902072,46.6091791 C47.8776827,46.6091791 48.6006053,47.3209017 48.6006053,48.1946565 C48.6006053,49.0684113 47.8789272,49.7801339 46.9902072,49.7801339 Z M55.7178632,54.6860899 C54.8304196,54.6860899 54.1062207,53.9743673 54.1062207,53.1006126 C54.1062207,52.2268578 54.8291433,51.5151352 55.7178632,51.5151352 C56.6053068,51.5151352 57.3282612,52.2268578 57.3282612,53.1006126 C57.3270136,53.9743673 56.6053387,54.6860899 55.7178632,54.6860899 Z M60.7173116,42.8198984 C59.8298681,42.8198984 59.1069136,42.1081758 59.1069136,41.2344211 C59.1069136,40.3606663 59.8298361,39.6489437 60.7173116,39.6489437 C61.6047871,39.6489437 62.3277097,40.3606663 62.3277097,41.2344211 C62.3277097,42.1081758 61.6060316,42.8198984 60.7173116,42.8198984 Z" id="Fill-2"></path>
                </g>
            </g>
        </g>
    </g>
</svg>