<?xml version="1.0" encoding="UTF-8"?>
<svg width="177px" height="130px" viewBox="0 0 177 130" version="1.1" xmlns="http://www.w3.org/2000/svg" xmlns:xlink="http://www.w3.org/1999/xlink">
    <!-- Generator: Sketch 50.2 (55047) - http://www.bohemiancoding.com/sketch -->
    <title>Group 28</title>
    <desc>Created with Sketch.</desc>
    <defs></defs>
    <g id="Channel-Audit" stroke="none" stroke-width="1" fill="none" fill-rule="evenodd">
        <g id="Group-28">
            <g id="Graph-Bg" fill="#DFE2E6">
                <path d="M146.032018,89.9953077 C149.06688,89.9953077 151.531332,92.4622888 151.531332,95.5002654 C151.531332,98.538242 149.06688,101.005223 146.032018,101.005223 C142.997155,101.005223 140.532703,98.538242 140.532703,95.5002654 C140.532703,92.4622888 142.997155,89.9953077 146.032018,89.9953077 M41.1404649,101.005223 C38.1056027,101.005223 35.6411507,98.538242 35.6411507,95.5002654 C35.6411507,92.4622888 38.1056027,89.9953077 41.1404649,89.9953077 C44.1753272,89.9953077 46.6397792,92.4622888 46.6397792,95.5002654 C46.6397792,98.538242 44.1753272,101.005223 41.1404649,101.005223 M53.6275546,38.9997 C53.6275546,48.5776263 57.081983,57.3425589 62.803068,64.1305067 L46.8945158,80.0573842 C45.0993718,79.3853893 43.1663704,79.0003923 41.1404649,79.0003923 C32.0498637,79.0003923 24.6575066,86.3993354 24.6575066,95.5002654 C24.6575066,98.3472435 25.3817578,101.026223 26.654442,103.366205 C26.563536,103.446204 26.4626403,103.508204 26.3757302,103.594203 L0,130 L15.3551244,130 L34.0537918,111.280144 C34.2555832,111.078146 34.4204128,110.854147 34.5842434,110.631149 C36.5951643,111.507142 38.8098745,112.000138 41.1404649,112.000138 C50.2310662,112.000138 57.6234232,104.584196 57.6234232,95.5002654 C57.6234232,92.4072892 56.7533228,89.5213114 55.2698566,87.0453304 L70.897699,71.3994508 C77.0982882,75.5664187 84.5575761,78.0004 92.5872742,78.0004 C101.13144,78.0004 109.026278,75.2394212 115.448638,70.5714571 L131.902626,87.0453304 C130.418161,89.5213114 129.549059,92.4072892 129.549059,95.5002654 C129.549059,104.599195 136.941417,112.000138 146.032018,112.000138 C155.122619,112.000138 162.529961,104.599195 162.514976,95.5002654 C162.514976,92.6672872 161.796719,90.0003077 160.537021,87.6693256 L177,71.1874524 L177,55.8145707 L152.51032,80.3313821 C150.520377,79.4763886 148.33164,79.0003923 146.032018,79.0003923 C144.006112,79.0003923 142.072112,79.3853893 140.277967,80.0573842 L123.264557,63.0245152 C128.448198,56.4015661 131.546994,48.0656303 131.546994,38.9997 C131.546994,17.4608657 114.104028,0 92.5872742,0 C71.0705203,0 53.6275546,17.4608657 53.6275546,38.9997" id="Fill-1"></path>
            </g>
            <g id="comment-icon" transform="translate(77.000000, 25.000000)" fill="#FFFFFF">
                <path d="M19.9158857,15.835 C19.9158857,16.46 19.4532571,16.965 18.8827429,16.965 L7.35268571,16.965 C6.78217143,16.965 6.31954286,16.46 6.31954286,15.835 C6.31954286,15.21 6.78217143,14.705 7.35268571,14.705 L18.8827429,14.705 C19.4532571,14.705 19.9158857,15.21 19.9158857,15.835 Z M25.6813714,9.717 C25.6813714,10.341 25.2187429,10.847 24.6473143,10.847 L7.35268571,10.847 C6.78217143,10.847 6.31954286,10.341 6.31954286,9.717 C6.31954286,9.093 6.78217143,8.586 7.35268571,8.586 L24.6473143,8.586 C25.2187429,8.586 25.6813714,9.093 25.6813714,9.717 Z M27.9570286,20.7 C27.9570286,21.049 27.6973714,21.333 27.3773714,21.333 L18.2756571,21.333 C17.7755429,21.333 17.2928,21.534 16.9206857,21.902 L13.1785143,25.589 L13.1785143,23.544 C13.1785143,22.958 12.9645714,22.396 12.5860571,21.981 C12.2066286,21.566 11.6918857,21.333 11.1570286,21.333 L4.62171429,21.333 C4.30262857,21.333 4.04297143,21.049 4.04297143,20.7 L4.04388571,5.055 C4.04388571,4.706 4.30262857,4.422 4.62171429,4.422 L27.3773714,4.422 C27.6973714,4.422 27.9570286,4.706 27.9570286,5.055 L27.9570286,20.7 Z M30.6459429,1.481 C29.7792,0.533 28.6034286,0 27.3773714,0 L4.62171429,0 C2.06902857,0 0,2.263 0,5.055 L0,20.7 C0,22.041 0.487314286,23.326 1.35405714,24.274 C2.2208,25.223 3.39657143,25.755 4.62171429,25.755 L5.99314286,25.755 L9.13554286,25.755 L9.13554286,29.752 C9.13554286,30.725 9.64662857,31.598 10.4356571,32.032 L10.6395429,32.129 C11.4578286,32.474 12.3849143,32.307 13.0432,31.667 L19.0500571,25.755 L27.3773714,25.755 C28.6034286,25.755 29.7792,25.223 30.6459429,24.274 C31.5136,23.326 32,22.041 32,20.7 L32,5.055 C32,3.715 31.5136,2.429 30.6459429,1.481 Z"></path>
            </g>
        </g>
    </g>
</svg>