<?xml version="1.0" encoding="UTF-8"?>
<svg width="177px" height="130px" viewBox="0 0 177 130" version="1.1" xmlns="http://www.w3.org/2000/svg" xmlns:xlink="http://www.w3.org/1999/xlink">
    <!-- Generator: Sketch 50.2 (55047) - http://www.bohemiancoding.com/sketch -->
    <title>top-subs</title>
    <desc>Created with Sketch.</desc>
    <defs></defs>
    <g id="Channel-Audit" stroke="none" stroke-width="1" fill="none" fill-rule="evenodd">
        <g id="vidIQ-Achievements-v3-Copy-2" transform="translate(-523.000000, -951.000000)">
            <g id="Group-2" transform="translate(170.000000, 62.000000)">
                <g id="Group-3-Copy-6" transform="translate(40.000000, 865.000000)">
                    <g id="Group-8" transform="translate(313.000000, 24.000000)">
                        <g id="Group">
                            <g id="top-subs">
                                <g id="Graph-Bg" fill="#DFE2E6">
                                    <path d="M146.032018,89.9953077 C149.06688,89.9953077 151.531332,92.4622888 151.531332,95.5002654 C151.531332,98.538242 149.06688,101.005223 146.032018,101.005223 C142.997155,101.005223 140.532703,98.538242 140.532703,95.5002654 C140.532703,92.4622888 142.997155,89.9953077 146.032018,89.9953077 M41.1404649,101.005223 C38.1056027,101.005223 35.6411507,98.538242 35.6411507,95.5002654 C35.6411507,92.4622888 38.1056027,89.9953077 41.1404649,89.9953077 C44.1753272,89.9953077 46.6397792,92.4622888 46.6397792,95.5002654 C46.6397792,98.538242 44.1753272,101.005223 41.1404649,101.005223 M53.6275546,38.9997 C53.6275546,48.5776263 57.081983,57.3425589 62.803068,64.1305067 L46.8945158,80.0573842 C45.0993718,79.3853893 43.1663704,79.0003923 41.1404649,79.0003923 C32.0498637,79.0003923 24.6575066,86.3993354 24.6575066,95.5002654 C24.6575066,98.3472435 25.3817578,101.026223 26.654442,103.366205 C26.563536,103.446204 26.4626403,103.508204 26.3757302,103.594203 L0,130 L15.3551244,130 L34.0537918,111.280144 C34.2555832,111.078146 34.4204128,110.854147 34.5842434,110.631149 C36.5951643,111.507142 38.8098745,112.000138 41.1404649,112.000138 C50.2310662,112.000138 57.6234232,104.584196 57.6234232,95.5002654 C57.6234232,92.4072892 56.7533228,89.5213114 55.2698566,87.0453304 L70.897699,71.3994508 C77.0982882,75.5664187 84.5575761,78.0004 92.5872742,78.0004 C101.13144,78.0004 109.026278,75.2394212 115.448638,70.5714571 L131.902626,87.0453304 C130.418161,89.5213114 129.549059,92.4072892 129.549059,95.5002654 C129.549059,104.599195 136.941417,112.000138 146.032018,112.000138 C155.122619,112.000138 162.529961,104.599195 162.514976,95.5002654 C162.514976,92.6672872 161.796719,90.0003077 160.537021,87.6693256 L177,71.1874524 L177,55.8145707 L152.51032,80.3313821 C150.520377,79.4763886 148.33164,79.0003923 146.032018,79.0003923 C144.006112,79.0003923 142.072112,79.3853893 140.277967,80.0573842 L123.264557,63.0245152 C128.448198,56.4015661 131.546994,48.0656303 131.546994,38.9997 C131.546994,17.4608657 114.104028,0 92.5872742,0 C71.0705203,0 53.6275546,17.4608657 53.6275546,38.9997" id="Fill-1"></path>
                                </g>
                                <g id="subs" transform="translate(75.000000, 20.000000)" fill="#FFFFFF">
                                    <path d="M34,12.592 L31.456,12.592 L31.456,10.048 C31.456,8.943 30.561,8.048 29.456,8.048 C28.352,8.048 27.456,8.943 27.456,10.048 L27.456,12.592 L24.911,12.592 C23.807,12.592 22.911,13.488 22.911,14.592 C22.911,15.696 23.807,16.592 24.911,16.592 L27.456,16.592 L27.456,19.136 C27.456,20.241 28.352,21.136 29.456,21.136 C30.561,21.136 31.456,20.241 31.456,19.136 L31.456,16.592 L34,16.592 C35.104,16.592 36,15.696 36,14.592 C36,13.488 35.104,12.592 34,12.592 M8.544,7.335 C8.544,9.176 10.037,10.67 11.879,10.67 C13.721,10.67 15.214,9.176 15.214,7.335 C15.214,5.493 13.721,4 11.879,4 C10.037,4 8.544,5.493 8.544,7.335 M4.544,7.335 C4.544,3.284 7.828,0 11.879,0 C15.93,0 19.214,3.284 19.214,7.335 C19.214,11.386 15.93,14.67 11.879,14.67 C7.828,14.67 4.544,11.386 4.544,7.335 M22.968,26.941 L22.968,32.078 C22.968,33.182 22.072,34.078 20.968,34.078 C19.863,34.078 18.968,33.182 18.968,32.078 L18.968,26.941 C18.968,24.952 17.557,23.408 15.91,23.408 L7.059,23.408 C5.411,23.408 4,24.952 4,26.941 L4,32.078 C4,33.182 3.104,34.078 2,34.078 C0.896,34.078 0,33.182 0,32.078 L0,26.941 C0,22.819 3.118,19.408 7.059,19.408 L15.91,19.408 C19.85,19.408 22.968,22.819 22.968,26.941" id="Fill-1"></path>
                                </g>
                            </g>
                        </g>
                    </g>
                </g>
            </g>
        </g>
    </g>
</svg>