<?xml version="1.0" encoding="UTF-8"?>
<svg width="177px" height="130px" viewBox="0 0 177 130" version="1.1" xmlns="http://www.w3.org/2000/svg" xmlns:xlink="http://www.w3.org/1999/xlink">
    <!-- Generator: Sketch 50.2 (55047) - http://www.bohemiancoding.com/sketch -->
    <title>top-uploads</title>
    <desc>Created with Sketch.</desc>
    <defs></defs>
    <g id="Channel-Audit" stroke="none" stroke-width="1" fill="none" fill-rule="evenodd">
        <g id="vidIQ-Achievements-v3-Copy-2" transform="translate(-522.000000, -1184.000000)">
            <g id="Group-2" transform="translate(170.000000, 62.000000)">
                <g id="Group-3-Copy-8" transform="translate(40.000000, 1098.000000)">
                    <g id="Group-7" transform="translate(312.000000, 24.000000)">
                        <g id="top-uploads">
                            <g id="Graph-Bg" fill="#DFE2E6">
                                <path d="M146.032018,89.9953077 C149.06688,89.9953077 151.531332,92.4622888 151.531332,95.5002654 C151.531332,98.538242 149.06688,101.005223 146.032018,101.005223 C142.997155,101.005223 140.532703,98.538242 140.532703,95.5002654 C140.532703,92.4622888 142.997155,89.9953077 146.032018,89.9953077 M41.1404649,101.005223 C38.1056027,101.005223 35.6411507,98.538242 35.6411507,95.5002654 C35.6411507,92.4622888 38.1056027,89.9953077 41.1404649,89.9953077 C44.1753272,89.9953077 46.6397792,92.4622888 46.6397792,95.5002654 C46.6397792,98.538242 44.1753272,101.005223 41.1404649,101.005223 M53.6275546,38.9997 C53.6275546,48.5776263 57.081983,57.3425589 62.803068,64.1305067 L46.8945158,80.0573842 C45.0993718,79.3853893 43.1663704,79.0003923 41.1404649,79.0003923 C32.0498637,79.0003923 24.6575066,86.3993354 24.6575066,95.5002654 C24.6575066,98.3472435 25.3817578,101.026223 26.654442,103.366205 C26.563536,103.446204 26.4626403,103.508204 26.3757302,103.594203 L0,130 L15.3551244,130 L34.0537918,111.280144 C34.2555832,111.078146 34.4204128,110.854147 34.5842434,110.631149 C36.5951643,111.507142 38.8098745,112.000138 41.1404649,112.000138 C50.2310662,112.000138 57.6234232,104.584196 57.6234232,95.5002654 C57.6234232,92.4072892 56.7533228,89.5213114 55.2698566,87.0453304 L70.897699,71.3994508 C77.0982882,75.5664187 84.5575761,78.0004 92.5872742,78.0004 C101.13144,78.0004 109.026278,75.2394212 115.448638,70.5714571 L131.902626,87.0453304 C130.418161,89.5213114 129.549059,92.4072892 129.549059,95.5002654 C129.549059,104.599195 136.941417,112.000138 146.032018,112.000138 C155.122619,112.000138 162.529961,104.599195 162.514976,95.5002654 C162.514976,92.6672872 161.796719,90.0003077 160.537021,87.6693256 L177,71.1874524 L177,55.8145707 L152.51032,80.3313821 C150.520377,79.4763886 148.33164,79.0003923 146.032018,79.0003923 C144.006112,79.0003923 142.072112,79.3853893 140.277967,80.0573842 L123.264557,63.0245152 C128.448198,56.4015661 131.546994,48.0656303 131.546994,38.9997 C131.546994,17.4608657 114.104028,0 92.5872742,0 C71.0705203,0 53.6275546,17.4608657 53.6275546,38.9997" id="Fill-1"></path>
                            </g>
                            <g id="Uploads" transform="translate(75.000000, 20.000000)" fill="#FFFFFF">
                                <path d="M22.8527244,14.5816643 L19.2872934,11.2764582 C19.2028808,11.1984533 19.1224877,11.1324492 19.0541536,11.0834461 C18.946628,11.0054413 18.8360875,10.9424373 18.7094685,10.888434 C18.1517418,10.6564195 17.3699196,10.7014223 16.8252568,11.0864463 C16.7438589,11.1434499 16.6684904,11.2074539 16.5961367,11.274458 L13.0216615,14.5876647 C12.6317552,14.9546876 12.4086646,15.4537187 12.3945958,15.9947524 C12.3885663,16.2457681 12.4277579,16.4927835 12.5121706,16.7277981 C12.599598,16.9718133 12.7312416,17.1918271 12.9020768,17.383839 C13.0819562,17.5838515 13.3010272,17.7418614 13.5522555,17.8518682 C14.2767977,18.1718882 15.1460473,18.0358797 15.715833,17.511847 L15.9620366,17.2828327 L15.9620366,22.7931764 L9.50145154,22.7931764 C7.91469406,22.7931764 6.42943278,22.0991331 5.4265297,20.8890576 C4.65274676,19.9539993 4.22565878,18.7659252 4.22565878,17.542849 C4.22565878,16.0607565 4.85473426,14.6436682 5.95109424,13.6516063 C6.80527021,12.8785581 7.86444841,12.4155292 9.023113,12.3105227 C9.50044663,12.2645198 9.95165252,12.0555067 10.2943278,11.7214859 C10.638008,11.3874651 10.858084,10.9424373 10.915364,10.4654076 C10.9605851,10.0823837 11.0369585,9.69935981 11.1444841,9.32833668 C11.2520098,8.95431335 11.3916927,8.58529034 11.5605181,8.23326838 C11.9092229,7.50522298 12.380527,6.84418176 12.9603618,6.26714577 C14.2968959,4.93606276 16.0866458,4.20401711 17.9989951,4.20401711 C19.90431,4.20401711 21.6900402,4.93606276 23.0265744,6.26714577 C24.3942608,7.62723059 25.1389013,9.43434329 25.1228227,11.3524629 C25.1198079,11.6144792 25.1037293,11.8774956 25.072577,12.1335116 C24.9982135,12.7295488 25.1831175,13.3315863 25.5840777,13.7856146 C25.869473,14.1076347 26.2533497,14.3226481 26.7266637,14.4276547 C26.8100715,14.4526562 26.9668379,14.4986591 27.1658106,14.4986591 L27.6049576,14.4986591 C28.4520992,14.4986591 29.262059,14.7406742 29.9474096,15.1987028 C30.1705002,15.3497122 30.3775123,15.5187227 30.5624163,15.7027342 C31.3432336,16.4787826 31.7723314,17.5238478 31.7723314,18.6459177 C31.7723314,19.4889703 31.5281376,20.2960207 31.0668825,20.9780632 C30.7684234,21.4200908 30.3915811,21.7951141 29.9494194,22.0921327 C29.262059,22.5511613 28.4520992,22.7931764 27.6049576,22.7931764 L19.9183787,22.7931764 L19.9183787,17.2828327 L20.1665922,17.5138471 C20.9363555,18.2228914 22.1804377,18.1828889 22.9391469,17.4248416 C23.1431443,17.2218289 23.2928763,16.9788138 23.3853283,16.7087969 C23.4677311,16.4657818 23.5018982,16.2087658 23.4858196,15.940749 C23.4526574,15.4227167 23.2235373,14.929686 22.8527244,14.5816643 M33.7811523,13.0175667 C33.265632,12.4635322 32.6747432,11.979502 32.0265744,11.5814772 C31.3703662,11.1784521 30.6619026,10.8654325 29.9172622,10.6534193 C29.6991961,10.5924155 29.4771103,10.5384121 29.2530147,10.4944094 C29.1997544,9.68835913 29.0640911,8.89530967 28.8480348,8.13026196 C28.7485485,7.77623988 28.6309736,7.42921824 28.4973202,7.08419672 C27.9375837,5.65310748 27.103506,4.38102815 26.0182001,3.30196085 C24.1621259,1.4538456 21.7000893,0.299773627 19.0853059,0.0507580975 C16.8966056,-0.157254875 14.6586646,0.277772255 12.7181778,1.28783525 C12.0519205,1.63585695 11.4168155,2.05188289 10.8299464,2.52691252 C10.5324922,2.76792755 10.246092,3.02594364 9.96974096,3.30096079 C9.56375614,3.70398592 9.18791871,4.1430133 8.85127289,4.60204193 C8.20410898,5.48909725 7.69059848,6.47315862 7.32481018,7.52622429 C7.21929433,7.82724306 7.12684234,8.13626233 7.04644931,8.44928185 C4.0950201,9.23833106 1.65509156,11.4234673 0.587874051,14.2776453 C0.394930773,14.7926774 0.248213488,15.3257107 0.151741849,15.8607441 C0.101496204,16.1337611 0.0633095132,16.4117784 0.0381866905,16.6927959 C0.0130638678,16.9738135 0,17.2558311 0,17.542849 C0,18.1818888 0.065319339,18.8209287 0.193948191,19.4449676 C0.380861992,20.3530242 0.702434122,21.2280788 1.14962037,22.0471299 C2.82179544,25.1023204 6.02143814,26.9994387 9.50245645,26.9994387 L15.9620366,26.9994387 L15.9620366,34.0078758 C15.9620366,34.2708922 16.0132872,34.5289083 16.1147834,34.7759237 C16.4242966,35.5199701 17.1397946,36 17.9407101,36 C18.7406208,36 19.4571237,35.5199701 19.765632,34.7769237 C19.8671282,34.5329085 19.9183787,34.2738924 19.9183787,34.0078758 L19.9183787,26.9994387 L27.6049576,26.9994387 C31.5733586,26.9994387 35.0322689,24.1932637 35.8281599,20.3270226 C35.9417151,19.7759882 36,19.210953 36,18.6459177 C36,16.5547873 35.2111434,14.5556627 33.7811523,13.0175667" id="Fill-1"></path>
                            </g>
                        </g>
                    </g>
                </g>
            </g>
        </g>
    </g>
</svg>