<?xml version="1.0" encoding="UTF-8"?>
<svg width="100px" height="100px" viewBox="0 0 100 100" version="1.1" xmlns="http://www.w3.org/2000/svg" xmlns:xlink="http://www.w3.org/1999/xlink">
    <!-- Generator: Sketch 50.2 (55047) - http://www.bohemiancoding.com/sketch -->
    <title>Group 7</title>
    <desc>Created with Sketch.</desc>
    <defs></defs>
    <g id="Channel-Audit" stroke="none" stroke-width="1" fill="none" fill-rule="evenodd" opacity="0.5">
        <g id="vidIQ-Achievements-v3" transform="translate(-560.000000, -669.000000)">
            <g id="Group-2" transform="translate(170.000000, 62.000000)">
                <g id="Group-3-Copy-2" transform="translate(40.000000, 572.000000)">
                    <g id="Group-7" transform="translate(350.000000, 35.000000)">
                        <path d="M48.7912576,0.00176100534 C29.3087983,0.667584988 13.6353331,16.7274722 13.6353331,36.364473 C13.6353331,43.3511136 15.6061921,49.8891292 19.0329232,55.4333064 L0.353852546,85.1200517 L0.353852546,85.1289265 C-0.134419132,85.8968388 -0.11665822,86.8867227 0.402679714,87.6368173 C0.922018785,88.38698 1.84082497,88.7554025 2.73307502,88.5734071 L23.9325372,84.3476055 L33.3072989,98.9426913 C33.7378675,99.61739 34.4880644,100.021323 35.291453,99.9991303 C36.0948758,99.9769354 36.8228914,99.5330512 37.2134496,98.8362053 L49.9972155,76.2163235 L62.7809815,98.8362053 C63.1715965,99.5330967 63.9039984,99.9769718 64.7029781,99.9991303 C65.5064008,100.021324 66.2610066,99.61739 66.6871322,98.9426913 L76.0618939,84.3476055 L97.2613549,88.5734071 C98.1579912,88.7554025 99.076877,88.38698 99.5917502,87.6368173 C100.111089,86.8866546 100.133282,85.8968615 99.6405786,85.1289265 L80.9615079,55.4421812 C84.388239,49.8981176 86.359098,43.3549885 86.359098,36.3733478 C86.359098,19.2578738 74.4230378,5.02641736 58.4836703,1.18219691 L58.4836703,1.17332213 C57.2585878,0.88036367 56.0245282,1.63495812 55.7315811,2.86009743 C55.4386227,4.08961163 56.1932171,5.31923946 57.4183564,5.61661827 C71.3873195,8.99016887 81.8143272,21.3605362 81.8143272,36.3681093 C81.8143272,53.9676619 67.5965068,68.1854822 49.9969542,68.1854822 C32.3974016,68.1854822 18.1795812,53.9676619 18.1795812,36.3681093 C18.1795812,19.1412745 31.8553699,5.13253967 48.9310722,4.55073627 C49.53475,4.52854366 50.1074059,4.27552736 50.5201227,3.83165228 C50.9329304,3.39220891 51.1548679,2.80629198 51.1371184,2.20260278 C51.1193575,1.60336802 50.8619095,1.03081439 50.4180344,0.617983977 C49.978591,0.205176289 49.3926741,-0.0167612511 48.7889849,0.000988297711 L48.7912576,0.00176100534 Z M21.9095546,59.4466135 C27.9507646,66.783927 36.7978125,71.7156198 46.8021036,72.5849158 L35.0842197,93.2877986 L26.9168136,80.5744855 L26.9168136,80.5789285 C26.4063493,79.7888236 25.4609416,79.3937314 24.5375559,79.5846356 L7.0311828,83.1002281 L21.91035,59.4508293 L21.9095546,59.4466135 Z M78.0876719,59.4466135 L92.9668391,83.0960123 L75.460466,79.5804198 L75.460466,79.5848629 C74.537194,79.3939928 73.5917635,79.7890509 73.0812083,80.5791558 L64.9138023,93.292469 L53.1959183,72.5895862 C63.2010049,71.7195856 72.0477118,66.7880291 78.0884673,59.4512838 L78.0876719,59.4466135 Z" id="Fill-1" fill="#A9CEEC"></path>
                        <circle id="Oval-2" fill="#A9CEEC" cx="51" cy="39" r="39"></circle>
                        <g id="Uploads" transform="translate(34.000000, 21.000000)" fill="#FFFFFF" stroke="#FFFFFF" stroke-width="2">
                            <path d="M16.9115809,0 C14.280625,0 11.6340074,1.00385291 9.62775735,3.01008816 C8.135625,4.50220954 7.23088235,6.3533724 6.84742647,8.2835788 C2.95404412,9.03897765 0,12.4397982 0,16.5441798 C0,21.2014985 3.79852941,25 8.45588235,25 L26.4705882,25 C30.5246324,25 33.8235294,21.7012375 33.8235294,17.6471129 C33.8235294,13.8214057 30.8751838,10.7048845 27.1367647,10.3633429 C27.154,7.70222278 26.2090441,5.03544092 24.1841176,3.01045581 C22.1793015,1.00565437 19.5425735,0.000367644356 16.9116912,0.000367644356 L16.9115809,0 Z M16.9115809,2.20586613 C18.9838971,2.20586613 21.0376838,2.9770737 22.6215074,4.5610694 C24.4525735,6.39212212 25.2280515,8.87942 24.9422794,11.2591819 C24.9035037,11.5722531 24.9997243,11.8881846 25.2079632,12.1251682 C25.417636,12.362126 25.7177794,12.4985478 26.0337353,12.4999816 L26.4703162,12.4999816 C29.341125,12.4999816 31.617375,14.7762149 31.617375,17.6470026 C31.617375,20.5177903 29.341125,22.7940236 26.4703162,22.7940236 L8.45561029,22.7940236 C4.99024265,22.7940236 2.20561029,20.0094117 2.20561029,16.5440695 C2.20561029,13.272623 4.69439706,10.6058779 7.88134559,10.3169094 C8.39689706,10.2666451 8.80763235,9.86452305 8.86939706,9.351843 C9.07188971,7.6040985 9.84594118,5.90517717 11.1901691,4.5610694 C12.7727794,2.97847075 14.8393603,2.20586613 16.9114926,2.20586613 L16.9115809,2.20586613 Z" id="Fill-1"></path>
                            <path d="M16.1970226,11.0082618 L12.6458,14.3140123 C12.2359566,14.7039916 12.2435111,15.3367453 12.5852678,15.7189562 C12.9270246,16.1011671 13.5815149,16.1295965 13.9573311,15.780939 L15.884289,13.9834372 L15.884289,33.0082749 C15.884289,33.5557732 16.3181193,34 16.8528043,34 C17.3874893,34 17.8213195,33.5557732 17.8213195,33.0082749 L17.8213195,13.9834372 L19.7482775,15.780939 C20.1240937,16.1295965 20.7584066,16.0818152 21.1203407,15.7189562 C21.5024523,15.3367453 21.4318281,14.6665375 21.0598085,14.3140123 L17.5085859,11.0082618 C17.3169006,10.8287694 17.175675,10.75 16.8528366,10.75 C16.5299336,10.75 16.3597009,10.8558865 16.1970226,11.0082618 Z" id="Path"></path>
                        </g>
                    </g>
                </g>
            </g>
        </g>
    </g>
</svg>