<?xml version="1.0" encoding="UTF-8"?>
<svg width="30px" height="40px" viewBox="0 0 30 40" version="1.1" xmlns="http://www.w3.org/2000/svg" xmlns:xlink="http://www.w3.org/1999/xlink">
    <!-- Generator: Sketch 50.2 (55047) - http://www.bohemiancoding.com/sketch -->
    <title>Group 6</title>
    <desc>Created with Sketch.</desc>
    <defs></defs>
    <g id="YouTube-Studio-Copy" stroke="none" stroke-width="1" fill="none" fill-rule="evenodd">
        <g id="A---YouTube-Studio---Video-Edit-Best-Hours-(Unpublished---Tip)" transform="translate(-1317.000000, -630.000000)" fill="#926FD2">
            <g id="Group" transform="translate(1054.000000, 544.000000)">
                <g id="Info-blue_icon" transform="translate(263.000000, 86.000000)">
                    <g id="Group-3">
                        <g id="Group-6">
                            <path d="M14.9309793,0 C23.2113154,0 29.9985536,6.6518241 29.9985536,14.9309793 C29.9985536,21.7182175 22.8038922,32.5773263 17.2389237,38.4143035 C16.0179924,39.6352346 13.9806006,39.6352346 12.7596299,38.4143035 C7.19466145,32.5773263 0,21.9902266 0,14.9309793 C0,6.65064317 6.6518241,0 14.9309793,0 Z M14.7750613,2 C22.1562078,2 27.8358242,7.67978106 27.8358242,14.7750613 C27.8358242,22.1562078 22.1560432,27.8358242 14.7750613,27.8358242 C7.67689934,27.8358242 2,22.1560432 2,14.7750613 C2,7.67689934 7.67978106,2 14.7750613,2 Z" id="Fill-1"></path>
                            <path d="M15.2856089,8.65403795 L15.2856089,15.384396 C15.2856089,15.5574346 15.1398901,15.6983395 14.9716654,15.6983395 C14.798092,15.6983395 14.657187,15.5569134 14.657187,15.384396 L14.657187,8.65348936 L13.4217932,9.87334448 C13.2985747,9.99441933 13.0960687,9.99120598 12.9765999,9.87334448 C12.8539177,9.75173338 12.8571324,9.55136417 12.9765999,9.43404852 L14.5264995,7.90403518 L14.5672158,7.86331894 C14.7906147,7.64312923 15.1522306,7.64312923 15.3756295,7.86331894 L15.4168806,7.90403518 L16.9662317,9.43404852 C17.0894502,9.55512337 17.0856992,9.75549395 16.9662317,9.87334448 C16.8435495,9.99441933 16.6405073,9.99120598 16.5215733,9.87548809 L15.2856089,8.65403795 Z M18.1430059,12.1268316 C17.9849713,12.1268316 17.8574656,11.9939703 17.8574656,11.8407564 C17.8574656,11.6832566 17.9897906,11.5552161 18.1430059,11.5552161 L19.8604994,11.5552161 C20.4899773,11.5552161 21,12.0657737 21,12.6936469 L21,18.9884257 C21,19.6173687 20.4889075,20.1268566 19.8604994,20.1268566 L10.1395006,20.1268566 C9.51002273,20.1268566 9,19.616299 9,18.9884257 L9,12.6936469 C9,12.0647039 9.51109248,11.5552161 10.1395006,11.5552161 L11.8569941,11.5552161 C12.0150287,11.5552161 12.1425344,11.6875411 12.1425344,11.8407564 C12.1425344,11.998791 12.0102094,12.1268316 11.8569941,12.1268316 L10.146358,12.1268316 C9.82813549,12.1268316 9.57098463,12.3823778 9.57098463,12.697391 L9.57098463,18.9847639 C9.57098463,19.2997771 9.82867037,19.5553234 10.146358,19.5553234 L19.8533677,19.5553234 C20.1715902,19.5553234 20.4287411,19.2997771 20.4287411,18.9847639 L20.4287411,12.697391 C20.4287411,12.3823778 20.1710553,12.1268316 19.8533677,12.1268316 L18.1430059,12.1268316 Z" id="Fill-1" stroke="#926FD2"></path>
                        </g>
                    </g>
                </g>
            </g>
        </g>
    </g>
</svg>