<?xml version="1.0" encoding="utf-8"?>
<!-- Generator: Adobe Illustrator 15.1.0, SVG Export Plug-In . SVG Version: 6.00 Build 0)  -->
<!DOCTYPE svg PUBLIC "-//W3C//DTD SVG 1.1//EN" "http://www.w3.org/Graphics/SVG/1.1/DTD/svg11.dtd">
<svg version="1.1" id="Layer_1" xmlns="http://www.w3.org/2000/svg" xmlns:xlink="http://www.w3.org/1999/xlink" x="0px" y="0px"
	 width="148.313px" height="55.673px" viewBox="0 0 148.313 55.673" enable-background="new 0 0 148.313 55.673"
	 xml:space="preserve">
<path fill="#FFFFFF" d="M0.169,17.582c-0.49-0.903,0.138-2.113,1.182-2.113h7.771c0.484,0,1.043,0.849,1.25,1.26l4.09,9.942
	c0.074,0,0.141,0,0.208,0l4.379-9.942c0.416-0.829,0.902-1.26,1.871-1.26h7.016c1.041,0,1.667,1.209,1.177,2.113l-13.19,25.945
	c-0.202,0.346-0.761,0.747-1.18,0.747h-0.347c-0.415,0-0.97-0.401-1.178-0.747L0.169,17.582z"/>
<path fill="#FFFFFF" d="M32.731,17.266c0-0.764,1.104-1.797,1.798-1.797h7.637c0.694,0,1.767,1.034,1.767,1.797v25.13
	c0,0.693-1.073,1.878-1.767,1.878h-7.637c-0.693,0-1.798-1.185-1.798-1.878V17.266z"/>
<path fill="#FFFFFF" d="M62.476,15.251c2.361,0,5.461,0.831,5.461,1.319V1.991c0-0.698,1.233-1.776,1.926-1.776h7.705
	c0.696,0,1.571,1.079,1.571,1.776v40.405c0,0.693-0.875,1.878-1.571,1.878h-3.259c-0.7,0-1.18-0.905-1.458-1.665l-0.836-2.435
	c0,0-3.195,4.304-9.303,4.304c-7.843,0-13.897-6.631-13.897-14.612C48.815,20.076,55.05,15.251,62.476,15.251z M64.104,35.455
	c3.189,0,5.55-2.502,5.55-5.693c0-3.125-2.361-5.554-5.55-5.554c-3.195,0-5.624,2.428-5.624,5.554
	C58.481,32.953,60.91,35.455,64.104,35.455z"/>
<path fill="#4F91C0" d="M86.25,1.793c0-0.62,1.054-1.579,1.675-1.579h7.397c0.617,0,1.593,0.958,1.593,1.579v40.834
	c0,0.616-0.976,1.669-1.593,1.669h-7.397c-0.621,0-1.675-1.053-1.675-1.669V1.793z"/>
<path fill="#4F91C0" d="M126.1,0c12.341,0,22.213,9.934,22.213,22.271c0,8.021-4.629,15.301-11.413,19.43l7.956,12.285
	c0.495,0.866,0,1.688-0.987,1.688h-8.325c-0.496,0-0.803-0.141-0.987-0.451l-6.54-10.951c-0.742,0.059-1.48,0.101-1.916,0.101
	c-12.334,0-22.14-9.783-22.14-22.123C103.96,9.913,113.766,0,126.1,0z M126.1,34.547c6.787,0,12.341-5.55,12.341-12.277
	c0-6.784-5.554-12.397-12.341-12.397c-6.721,0-12.271,5.613-12.271,12.397C113.829,28.998,119.379,34.547,126.1,34.547z"/>
<path fill="#4F91C0" d="M43.465,4.087l-8.923-4.033c-0.168-0.077-0.623,0.024-0.623,0.219v8.164c0,0.189,0.352,0.292,0.521,0.217
	l8.933-4.002c0.074-0.041,0.437-0.119,0.437-0.221V4.304C43.81,4.201,43.54,4.125,43.465,4.087z"/>
</svg>
