<svg width="185" height="55.673" xmlns="http://www.w3.org/2000/svg">
 <g>
  <title>Layer 1</title>
  <path id="svg_1" d="m0.169,17.582001c-0.49,-0.903 0.138,-2.113001 1.182,-2.113001h7.771c0.484,0 1.043,0.849001 1.25,1.26l4.09,9.941999c0.074,0 0.141,0 0.208,0l4.379,-9.941999c0.416,-0.829 0.902,-1.26 1.871,-1.26h7.016001c1.040998,0 1.667,1.209 1.177,2.113001l-13.190001,25.945c-0.202001,0.346001 -0.761001,0.746998 -1.18,0.746998h-0.347c-0.415,0 -0.97,-0.400997 -1.177999,-0.746998l-13.048996,-25.945l-0.000002,0l-0.000002,0z" fill="#FFFFFF"/>
  <path id="svg_2" d="m32.730999,17.266001c0,-0.764 1.104,-1.797001 1.798,-1.797001h7.637001c0.694,0 1.766998,1.034 1.766998,1.797001v25.129999c0,0.693001 -1.072998,1.877998 -1.766998,1.877998h-7.637001c-0.693001,0 -1.798,-1.184998 -1.798,-1.877998v-25.129999l0,0z" fill="#FFFFFF"/>
  <path id="svg_3" d="m62.476002,15.251c2.360996,0 5.460995,0.831 5.460995,1.318999v-14.579c0,-0.698 1.233002,-1.776002 1.926003,-1.776002h7.705002c0.695999,0 1.570999,1.079002 1.570999,1.776002v40.405c0,0.693001 -0.875,1.877998 -1.570999,1.877998h-3.259003c-0.699997,0 -1.18,-0.904999 -1.458,-1.664997l-0.835999,-2.435001c0,0 -3.195,4.304001 -9.302998,4.304001c-7.843002,0 -13.897003,-6.631001 -13.897003,-14.612001c0,-9.789999 6.235001,-14.614999 13.661003,-14.614999l0,0l0,0l0,0l0,0l0,0l0,0zm1.627995,20.204001c3.189003,0 5.550003,-2.502003 5.550003,-5.693003c0,-3.125 -2.361,-5.553999 -5.550003,-5.553999c-3.194996,0 -5.623997,2.427999 -5.623997,5.553999c0.000999,3.191 2.43,5.693003 5.623997,5.693003z" fill="#FFFFFF"/>
  <path id="svg_4" d="m86.25,1.793c0,-0.62 1.054001,-1.579 1.675003,-1.579h7.396996c0.617004,0 1.593002,0.958 1.593002,1.579v40.833999c0,0.616001 -0.975998,1.669003 -1.593002,1.669003h-7.396996c-0.621002,0 -1.675003,-1.052998 -1.675003,-1.669003v-40.833999l0,0z" fill="#4F91C0"/>
  <path id="svg_5" d="m126.099998,0c12.340996,0 22.213005,9.934 22.213005,22.271c0,8.021 -4.628998,15.300999 -11.41301,19.43l7.956009,12.285c0.494995,0.866001 0,1.688 -0.987,1.688h-8.324997c-0.496002,0 -0.803009,-0.140999 -0.987,-0.451l-6.540009,-10.951c-0.741997,0.059002 -1.479996,0.101002 -1.916,0.101002c-12.334,0 -22.139999,-9.783001 -22.139999,-22.123001c-0.000999,-12.337 9.805,-22.249997 22.139,-22.249997l0,-0.000001l0,-0.000002zm0,34.547001c6.786995,0 12.340996,-5.550001 12.340996,-12.277c0,-6.784 -5.554001,-12.397 -12.340996,-12.397c-6.721001,0 -12.270996,5.613 -12.270996,12.397c0,6.727999 5.549995,12.277 12.270996,12.277z" fill="#4F91C0"/>
  <path id="svg_6" d="m43.465,4.087l-8.923,-4.033c-0.167999,-0.077 -0.623001,0.024 -0.623001,0.219v8.163999c0,0.189 0.352001,0.292 0.521,0.217l8.933002,-4.001999c0.073997,-0.041 0.437,-0.119 0.437,-0.221v-0.127c0,-0.103 -0.27,-0.179 -0.345001,-0.217z" fill="#4F91C0"/>
  <text font-weight="bold" xml:space="preserve" text-anchor="middle" font-family="Monospace" font-size="63" id="svg_7" y="46.3365" x="167.5" stroke-linecap="null" stroke-linejoin="null" stroke-width="0" fill="#ffffff">+</text>
 </g>
</svg>