<?xml version="1.0" encoding="UTF-8"?>
<svg width="100px" height="100px" viewBox="0 0 100 100" version="1.1" xmlns="http://www.w3.org/2000/svg" xmlns:xlink="http://www.w3.org/1999/xlink">
    <!-- Generator: Sketch 50.2 (55047) - http://www.bohemiancoding.com/sketch -->
    <title>Group 7</title>
    <desc>Created with Sketch.</desc>
    <defs></defs>
    <g id="Channel-Audit" stroke="none" stroke-width="1" fill="none" fill-rule="evenodd" opacity="0.5">
        <g id="vidIQ-Achievements-v3" transform="translate(-1090.000000, -436.000000)">
            <g id="Group-2" transform="translate(170.000000, 62.000000)">
                <g id="Group-3-Copy-4" transform="translate(570.000000, 339.000000)">
                    <g id="Group-7" transform="translate(350.000000, 35.000000)">
                        <path d="M48.7912576,0.00176100534 C29.3087983,0.667584988 13.6353331,16.7274722 13.6353331,36.364473 C13.6353331,43.3511136 15.6061921,49.8891292 19.0329232,55.4333064 L0.353852546,85.1200517 L0.353852546,85.1289265 C-0.134419132,85.8968388 -0.11665822,86.8867227 0.402679714,87.6368173 C0.922018785,88.38698 1.84082497,88.7554025 2.73307502,88.5734071 L23.9325372,84.3476055 L33.3072989,98.9426913 C33.7378675,99.61739 34.4880644,100.021323 35.291453,99.9991303 C36.0948758,99.9769354 36.8228914,99.5330512 37.2134496,98.8362053 L49.9972155,76.2163235 L62.7809815,98.8362053 C63.1715965,99.5330967 63.9039984,99.9769718 64.7029781,99.9991303 C65.5064008,100.021324 66.2610066,99.61739 66.6871322,98.9426913 L76.0618939,84.3476055 L97.2613549,88.5734071 C98.1579912,88.7554025 99.076877,88.38698 99.5917502,87.6368173 C100.111089,86.8866546 100.133282,85.8968615 99.6405786,85.1289265 L80.9615079,55.4421812 C84.388239,49.8981176 86.359098,43.3549885 86.359098,36.3733478 C86.359098,19.2578738 74.4230378,5.02641736 58.4836703,1.18219691 L58.4836703,1.17332213 C57.2585878,0.88036367 56.0245282,1.63495812 55.7315811,2.86009743 C55.4386227,4.08961163 56.1932171,5.31923946 57.4183564,5.61661827 C71.3873195,8.99016887 81.8143272,21.3605362 81.8143272,36.3681093 C81.8143272,53.9676619 67.5965068,68.1854822 49.9969542,68.1854822 C32.3974016,68.1854822 18.1795812,53.9676619 18.1795812,36.3681093 C18.1795812,19.1412745 31.8553699,5.13253967 48.9310722,4.55073627 C49.53475,4.52854366 50.1074059,4.27552736 50.5201227,3.83165228 C50.9329304,3.39220891 51.1548679,2.80629198 51.1371184,2.20260278 C51.1193575,1.60336802 50.8619095,1.03081439 50.4180344,0.617983977 C49.978591,0.205176289 49.3926741,-0.0167612511 48.7889849,0.000988297711 L48.7912576,0.00176100534 Z M21.9095546,59.4466135 C27.9507646,66.783927 36.7978125,71.7156198 46.8021036,72.5849158 L35.0842197,93.2877986 L26.9168136,80.5744855 L26.9168136,80.5789285 C26.4063493,79.7888236 25.4609416,79.3937314 24.5375559,79.5846356 L7.0311828,83.1002281 L21.91035,59.4508293 L21.9095546,59.4466135 Z M78.0876719,59.4466135 L92.9668391,83.0960123 L75.460466,79.5804198 L75.460466,79.5848629 C74.537194,79.3939928 73.5917635,79.7890509 73.0812083,80.5791558 L64.9138023,93.292469 L53.1959183,72.5895862 C63.2010049,71.7195856 72.0477118,66.7880291 78.0884673,59.4512838 L78.0876719,59.4466135 Z" id="Fill-1" fill="#A9CEEC"></path>
                        <circle id="Oval-2" fill="#A9CEEC" cx="51" cy="39" r="39"></circle>
                        <g id="views" transform="translate(35.000000, 28.000000)">
                            <path d="M0,11.1999998 C0,11.1999998 5.81818172,0 15.9999997,0 C26.1818177,0 31.9999995,11.1999998 31.9999995,11.1999998 C31.9999995,11.1999998 26.1818177,22.3999996 15.9999997,22.3999996 C5.81818172,22.3999996 0,11.1999998 0,11.1999998 Z" id="Shape" stroke="#FFFFFF" stroke-width="4" stroke-linecap="round" stroke-linejoin="round"></path>
                            <circle id="Oval" fill="#FFFFFF" cx="15.9999997" cy="11.1999998" r="4.79999992"></circle>
                        </g>
                    </g>
                </g>
            </g>
        </g>
    </g>
</svg>